<svg width="201" height="62" viewBox="0 0 201 62" fill="none" xmlns="http://www.w3.org/2000/svg">
<path d="M59.9292 19.1854C58.7225 17.9788 57.0333 17.2146 55.1831 17.2146C52.2872 17.2146 49.6326 16.0481 47.7422 14.1175C45.8518 12.2272 44.6452 9.57258 44.6452 6.67667C44.6452 2.97635 41.6689 0 37.9685 0H23.8912C22.0411 0 20.3518 0.764198 19.1452 1.97083C17.9385 3.17745 17.1743 4.86673 17.1743 6.71689C17.1743 12.5489 12.4685 17.2548 6.63645 17.2548C3.01657 17.2146 0 20.1909 0 23.8912V37.9685C0 41.6689 3.01657 44.6452 6.67667 44.6452C9.57258 44.6452 12.2272 45.8116 14.1175 47.7422C16.0079 49.6326 17.2146 52.2872 17.2146 55.1831C17.2146 58.8834 20.1909 61.8598 23.8912 61.8598H37.9685C39.8187 61.8598 41.508 61.0956 42.7146 59.8889C43.9212 58.6823 44.6854 56.993 44.6854 55.1429C44.6854 52.247 45.8518 49.5924 47.7825 47.702C49.6728 45.8116 52.3274 44.605 55.2233 44.605C58.9236 44.605 61.9 41.5884 61.9 37.9283V23.851C61.9 22.0411 61.1358 20.392 59.9292 19.1854ZM30.9299 46.8172C22.1617 46.8172 15.0828 39.698 15.0828 30.9701C15.0828 22.2019 22.2019 15.1231 30.9299 15.1231C39.6578 15.1231 46.7769 22.2422 46.7769 30.9701C46.8172 39.698 39.698 46.8172 30.9299 46.8172Z" fill="#07332F"/>
<path d="M31.0506 44.4837C38.4694 44.4837 44.4836 38.4695 44.4836 31.0507C44.4836 23.6318 38.4694 17.6177 31.0506 17.6177C23.6317 17.6177 17.6176 23.6318 17.6176 31.0507C17.6176 38.4695 23.6317 44.4837 31.0506 44.4837Z" fill="#F7A582"/>
<path d="M38.4519 29.4285V32.7129C38.4519 33.508 37.795 34.1649 36.9998 34.1649H34.1649V36.9999C34.1649 37.795 33.508 38.4519 32.7128 38.4519H29.4284C28.6333 38.4519 27.9764 37.795 27.9764 36.9999V34.1649H25.1414C24.3463 34.1649 23.6894 33.508 23.6894 32.7129V29.4285C23.6894 28.6333 24.3463 27.9764 25.1414 27.9764H27.9764V25.1415C27.9764 24.3463 28.6333 23.6895 29.4284 23.6895H32.7128C33.508 23.6895 34.1649 24.3463 34.1649 25.1415V27.9764H36.9998C37.795 27.9764 38.4519 28.6333 38.4519 29.4285Z" fill="#07332F"/>
<path d="M74.595 41.9067V19.0867H81.035C83.3684 19.0867 85.3867 19.4834 87.09 20.2767C88.8167 21.0701 90.1467 22.3067 91.08 23.9867C92.0134 25.6434 92.48 27.7784 92.48 30.3917C92.48 33.0051 92.0134 35.1634 91.08 36.8667C90.1467 38.5701 88.84 39.8417 87.16 40.6817C85.5034 41.4984 83.5667 41.9067 81.35 41.9067H74.595ZM79.74 37.7417H80.72C82.0267 37.7417 83.1584 37.5084 84.115 37.0417C85.095 36.5751 85.8534 35.8051 86.39 34.7317C86.9267 33.6584 87.195 32.2117 87.195 30.3917C87.195 28.5717 86.9267 27.1484 86.39 26.1217C85.8534 25.0717 85.095 24.3367 84.115 23.9167C83.1584 23.4734 82.0267 23.2517 80.72 23.2517H79.74V37.7417ZM103.847 42.3267C102.377 42.3267 101 41.9767 99.7168 41.2767C98.4335 40.5534 97.3835 39.5151 96.5668 38.1617C95.7735 36.7851 95.3768 35.1401 95.3768 33.2267C95.3768 31.3134 95.7735 29.6801 96.5668 28.3267C97.3835 26.9501 98.4335 25.9117 99.7168 25.2117C101 24.4884 102.377 24.1267 103.847 24.1267C105.293 24.1267 106.658 24.4884 107.942 25.2117C109.225 25.9117 110.263 26.9501 111.057 28.3267C111.873 29.6801 112.282 31.3134 112.282 33.2267C112.282 35.1401 111.873 36.7851 111.057 38.1617C110.263 39.5151 109.225 40.5534 107.942 41.2767C106.658 41.9767 105.293 42.3267 103.847 42.3267ZM103.847 38.1617C104.547 38.1617 105.13 37.9634 105.597 37.5667C106.087 37.1701 106.448 36.5984 106.682 35.8517C106.915 35.1051 107.032 34.2301 107.032 33.2267C107.032 32.2234 106.915 31.3484 106.682 30.6017C106.448 29.8551 106.087 29.2834 105.597 28.8867C105.13 28.4901 104.547 28.2917 103.847 28.2917C103.123 28.2917 102.528 28.4901 102.062 28.8867C101.595 29.2834 101.245 29.8551 101.012 30.6017C100.778 31.3484 100.662 32.2234 100.662 33.2267C100.662 34.2301 100.778 35.1051 101.012 35.8517C101.245 36.5984 101.595 37.1701 102.062 37.5667C102.528 37.9634 103.123 38.1617 103.847 38.1617ZM123.471 42.3267C121.838 42.3267 120.356 41.9651 119.026 41.2417C117.719 40.5184 116.681 39.4801 115.911 38.1267C115.164 36.7734 114.791 35.1401 114.791 33.2267C114.791 31.3134 115.211 29.6801 116.051 28.3267C116.891 26.9734 117.999 25.9351 119.376 25.2117C120.753 24.4884 122.234 24.1267 123.821 24.1267C124.894 24.1267 125.851 24.3017 126.691 24.6517C127.554 24.9784 128.289 25.4217 128.896 25.9817L126.481 29.1667C126.178 28.9101 125.828 28.7001 125.431 28.5367C125.058 28.3734 124.626 28.2917 124.136 28.2917C123.319 28.2917 122.608 28.4901 122.001 28.8867C121.394 29.2834 120.916 29.8551 120.566 30.6017C120.216 31.3484 120.041 32.2234 120.041 33.2267C120.041 34.2301 120.216 35.1051 120.566 35.8517C120.916 36.5984 121.383 37.1701 121.966 37.5667C122.573 37.9634 123.249 38.1617 123.996 38.1617C124.579 38.1617 125.128 38.0567 125.641 37.8467C126.154 37.6367 126.633 37.3684 127.076 37.0417L129.106 40.1917C128.383 40.8451 127.531 41.3701 126.551 41.7667C125.571 42.1401 124.544 42.3267 123.471 42.3267Z" fill="#F7A582"/>
<path d="M139.605 41.9067V19.0867H144.75V27.8717H152.625V19.0867H157.805V41.9067H152.625V32.3867H144.75V41.9067H139.605ZM167.984 42.3267C166.094 42.3267 164.717 41.7084 163.854 40.4717C163.014 39.2117 162.594 37.4967 162.594 35.3267V24.5467H167.739V34.6617C167.739 35.9217 167.914 36.7851 168.264 37.2517C168.614 37.7184 169.162 37.9517 169.909 37.9517C170.539 37.9517 171.087 37.8001 171.554 37.4967C172.02 37.1934 172.499 36.7034 172.989 36.0267V24.5467H178.134V41.9067H173.934L173.549 39.4917H173.444C172.72 40.3551 171.927 41.0434 171.064 41.5567C170.2 42.0701 169.174 42.3267 167.984 42.3267ZM191.761 42.3267C190.991 42.3267 190.221 42.1401 189.451 41.7667C188.681 41.3701 187.946 40.7984 187.246 40.0517H187.106L186.686 41.9067H182.661V17.3717H187.806V23.3917L187.666 26.0517C188.32 25.4451 189.043 24.9784 189.836 24.6517C190.63 24.3017 191.435 24.1267 192.251 24.1267C193.651 24.1267 194.865 24.4884 195.891 25.2117C196.918 25.9351 197.7 26.9617 198.236 28.2917C198.796 29.5984 199.076 31.1384 199.076 32.9117C199.076 34.8951 198.726 36.5984 198.026 38.0217C197.326 39.4217 196.416 40.4951 195.296 41.2417C194.2 41.9651 193.021 42.3267 191.761 42.3267ZM190.571 38.1267C191.155 38.1267 191.691 37.9517 192.181 37.6017C192.695 37.2517 193.091 36.7034 193.371 35.9567C193.651 35.1867 193.791 34.2067 193.791 33.0167C193.791 31.9667 193.675 31.1034 193.441 30.4267C193.231 29.7267 192.905 29.2017 192.461 28.8517C192.018 28.5017 191.458 28.3267 190.781 28.3267C190.268 28.3267 189.766 28.4551 189.276 28.7117C188.81 28.9451 188.32 29.3417 187.806 29.9017V37.0067C188.25 37.4034 188.716 37.6951 189.206 37.8817C189.696 38.0451 190.151 38.1267 190.571 38.1267Z" fill="#07332F"/>
</svg>
