<svg width="201" height="62" viewBox="0 0 201 62" fill="none" xmlns="http://www.w3.org/2000/svg">
<path d="M59.9292 19.1854C58.7225 17.9788 57.0333 17.2146 55.1831 17.2146C52.2872 17.2146 49.6326 16.0481 47.7422 14.1175C45.8518 12.2272 44.6452 9.57258 44.6452 6.67667C44.6452 2.97635 41.6689 0 37.9685 0H23.8912C22.0411 0 20.3518 0.764198 19.1452 1.97083C17.9385 3.17745 17.1743 4.86673 17.1743 6.71689C17.1743 12.5489 12.4685 17.2548 6.63645 17.2548C3.01657 17.2146 0 20.1909 0 23.8912V37.9685C0 41.6689 3.01657 44.6452 6.67667 44.6452C9.57258 44.6452 12.2272 45.8116 14.1175 47.7422C16.0079 49.6326 17.2146 52.2872 17.2146 55.1831C17.2146 58.8834 20.1909 61.8598 23.8912 61.8598H37.9685C39.8187 61.8598 41.508 61.0956 42.7146 59.8889C43.9212 58.6823 44.6854 56.993 44.6854 55.1429C44.6854 52.247 45.8518 49.5924 47.7825 47.702C49.6728 45.8116 52.3274 44.605 55.2233 44.605C58.9236 44.605 61.9 41.5884 61.9 37.9283V23.851C61.9 22.0411 61.1358 20.392 59.9292 19.1854ZM30.9299 46.8172C22.1617 46.8172 15.0828 39.698 15.0828 30.9701C15.0828 22.2019 22.2019 15.1231 30.9299 15.1231C39.6578 15.1231 46.7769 22.2422 46.7769 30.9701C46.8172 39.698 39.698 46.8172 30.9299 46.8172Z" fill="white"/>
<path d="M31.0506 44.4836C38.4694 44.4836 44.4836 38.4694 44.4836 31.0506C44.4836 23.6317 38.4694 17.6176 31.0506 17.6176C23.6317 17.6176 17.6176 23.6317 17.6176 31.0506C17.6176 38.4694 23.6317 44.4836 31.0506 44.4836Z" fill="#F7A582"/>
<path d="M38.4519 29.4285V32.7129C38.4519 33.508 37.795 34.1649 36.9998 34.1649H34.1649V36.9999C34.1649 37.795 33.508 38.4519 32.7128 38.4519H29.4284C28.6333 38.4519 27.9764 37.795 27.9764 36.9999V34.1649H25.1414C24.3463 34.1649 23.6894 33.508 23.6894 32.7129V29.4285C23.6894 28.6333 24.3463 27.9764 25.1414 27.9764H27.9764V25.1415C27.9764 24.3463 28.6333 23.6895 29.4284 23.6895H32.7128C33.508 23.6895 34.1649 24.3463 34.1649 25.1415V27.9764H36.9998C37.795 27.9764 38.4519 28.6333 38.4519 29.4285Z" fill="white"/>
<path d="M74.595 41.9066V19.0866H81.035C83.3684 19.0866 85.3867 19.4832 87.09 20.2766C88.8167 21.0699 90.1467 22.3066 91.08 23.9866C92.0134 25.6432 92.48 27.7782 92.48 30.3916C92.48 33.0049 92.0134 35.1632 91.08 36.8666C90.1467 38.5699 88.84 39.8416 87.16 40.6816C85.5034 41.4982 83.5667 41.9066 81.35 41.9066H74.595ZM79.74 37.7416H80.72C82.0267 37.7416 83.1584 37.5082 84.115 37.0416C85.095 36.5749 85.8534 35.8049 86.39 34.7316C86.9267 33.6582 87.195 32.2116 87.195 30.3916C87.195 28.5716 86.9267 27.1482 86.39 26.1216C85.8534 25.0716 85.095 24.3366 84.115 23.9166C83.1584 23.4732 82.0267 23.2516 80.72 23.2516H79.74V37.7416ZM103.847 42.3266C102.377 42.3266 101 41.9766 99.7168 41.2766C98.4335 40.5532 97.3835 39.5149 96.5668 38.1616C95.7735 36.7849 95.3768 35.1399 95.3768 33.2266C95.3768 31.3132 95.7735 29.6799 96.5668 28.3266C97.3835 26.9499 98.4335 25.9116 99.7168 25.2116C101 24.4882 102.377 24.1266 103.847 24.1266C105.293 24.1266 106.658 24.4882 107.942 25.2116C109.225 25.9116 110.263 26.9499 111.057 28.3266C111.873 29.6799 112.282 31.3132 112.282 33.2266C112.282 35.1399 111.873 36.7849 111.057 38.1616C110.263 39.5149 109.225 40.5532 107.942 41.2766C106.658 41.9766 105.293 42.3266 103.847 42.3266ZM103.847 38.1616C104.547 38.1616 105.13 37.9632 105.597 37.5666C106.087 37.1699 106.448 36.5982 106.682 35.8516C106.915 35.1049 107.032 34.2299 107.032 33.2266C107.032 32.2232 106.915 31.3482 106.682 30.6016C106.448 29.8549 106.087 29.2832 105.597 28.8866C105.13 28.4899 104.547 28.2916 103.847 28.2916C103.123 28.2916 102.528 28.4899 102.062 28.8866C101.595 29.2832 101.245 29.8549 101.012 30.6016C100.778 31.3482 100.662 32.2232 100.662 33.2266C100.662 34.2299 100.778 35.1049 101.012 35.8516C101.245 36.5982 101.595 37.1699 102.062 37.5666C102.528 37.9632 103.123 38.1616 103.847 38.1616ZM123.471 42.3266C121.838 42.3266 120.356 41.9649 119.026 41.2416C117.719 40.5182 116.681 39.4799 115.911 38.1266C115.164 36.7732 114.791 35.1399 114.791 33.2266C114.791 31.3132 115.211 29.6799 116.051 28.3266C116.891 26.9732 117.999 25.9349 119.376 25.2116C120.753 24.4882 122.234 24.1266 123.821 24.1266C124.894 24.1266 125.851 24.3016 126.691 24.6516C127.554 24.9782 128.289 25.4216 128.896 25.9816L126.481 29.1666C126.178 28.9099 125.828 28.6999 125.431 28.5366C125.058 28.3732 124.626 28.2916 124.136 28.2916C123.319 28.2916 122.608 28.4899 122.001 28.8866C121.394 29.2832 120.916 29.8549 120.566 30.6016C120.216 31.3482 120.041 32.2232 120.041 33.2266C120.041 34.2299 120.216 35.1049 120.566 35.8516C120.916 36.5982 121.383 37.1699 121.966 37.5666C122.573 37.9632 123.249 38.1616 123.996 38.1616C124.579 38.1616 125.128 38.0566 125.641 37.8466C126.154 37.6366 126.633 37.3682 127.076 37.0416L129.106 40.1916C128.383 40.8449 127.531 41.3699 126.551 41.7666C125.571 42.1399 124.544 42.3266 123.471 42.3266Z" fill="#F7A582"/>
<path d="M139.605 41.9066V19.0866H144.75V27.8716H152.625V19.0866H157.805V41.9066H152.625V32.3866H144.75V41.9066H139.605ZM167.984 42.3266C166.094 42.3266 164.717 41.7082 163.854 40.4716C163.014 39.2116 162.594 37.4966 162.594 35.3266V24.5466H167.739V34.6616C167.739 35.9216 167.914 36.7849 168.264 37.2516C168.614 37.7182 169.162 37.9516 169.909 37.9516C170.539 37.9516 171.087 37.7999 171.554 37.4966C172.02 37.1932 172.499 36.7032 172.989 36.0266V24.5466H178.134V41.9066H173.934L173.549 39.4916H173.444C172.72 40.3549 171.927 41.0432 171.064 41.5566C170.2 42.0699 169.174 42.3266 167.984 42.3266ZM191.761 42.3266C190.991 42.3266 190.221 42.1399 189.451 41.7666C188.681 41.3699 187.946 40.7982 187.246 40.0516H187.106L186.686 41.9066H182.661V17.3716H187.806V23.3916L187.666 26.0516C188.32 25.4449 189.043 24.9782 189.836 24.6516C190.63 24.3016 191.435 24.1266 192.251 24.1266C193.651 24.1266 194.865 24.4882 195.891 25.2116C196.918 25.9349 197.7 26.9616 198.236 28.2916C198.796 29.5982 199.076 31.1382 199.076 32.9116C199.076 34.8949 198.726 36.5982 198.026 38.0216C197.326 39.4216 196.416 40.4949 195.296 41.2416C194.2 41.9649 193.021 42.3266 191.761 42.3266ZM190.571 38.1266C191.155 38.1266 191.691 37.9516 192.181 37.6016C192.695 37.2516 193.091 36.7032 193.371 35.9566C193.651 35.1866 193.791 34.2066 193.791 33.0166C193.791 31.9666 193.675 31.1032 193.441 30.4266C193.231 29.7266 192.905 29.2016 192.461 28.8516C192.018 28.5016 191.458 28.3266 190.781 28.3266C190.268 28.3266 189.766 28.4549 189.276 28.7116C188.81 28.9449 188.32 29.3416 187.806 29.9016V37.0066C188.25 37.4032 188.716 37.6949 189.206 37.8816C189.696 38.0449 190.151 38.1266 190.571 38.1266Z" fill="white"/>
</svg>
