<svg width="269" height="269" viewBox="0 0 269 269" fill="none" xmlns="http://www.w3.org/2000/svg">
<path d="M41.6021 143.003C30.7989 154.293 24.8459 169.364 25.018 184.989C25.1902 200.615 31.4738 215.551 42.5232 226.601C53.5726 237.65 68.5092 243.934 84.1345 244.106C99.7597 244.278 114.831 238.325 126.121 227.522L174.332 179.311L89.8129 94.7918L41.6021 143.003ZM110.776 212.176C111.402 211.553 112.249 211.204 113.133 211.204C114.016 211.204 114.863 211.553 115.49 212.176C116.107 212.799 116.455 213.639 116.459 214.516C116.462 214.956 116.377 215.392 116.211 215.8C116.045 216.207 115.799 216.578 115.49 216.89C107.096 225.269 95.7214 229.975 83.8617 229.975C72.0021 229.975 60.6271 225.269 52.2339 216.89C51.6112 216.264 51.2617 215.416 51.2617 214.533C51.2617 213.65 51.6112 212.802 52.2339 212.176C52.8603 211.553 53.7077 211.204 54.5909 211.204C55.4742 211.204 56.3216 211.553 56.948 212.176C64.097 219.293 73.774 223.289 83.8617 223.289C93.9494 223.289 103.626 219.293 110.776 212.176Z" fill="white" fill-opacity="0.05"/>
<path d="M142.704 41.9004L94.527 90.0777L179.046 174.597L227.224 126.42C238.027 115.13 243.98 100.058 243.808 84.4328C243.635 68.8075 237.352 53.8709 226.302 42.8215C215.253 31.7721 200.316 25.4885 184.691 25.3164C169.066 25.1442 153.994 31.0972 142.704 41.9004Z" fill="white" fill-opacity="0.05"/>
</svg>
