<svg width="138" height="138" viewBox="0 0 138 138" fill="none" xmlns="http://www.w3.org/2000/svg">
<circle cx="69" cy="69" r="69" fill="#01D0FB" fill-opacity="0.05"/>
<g clip-path="url(#clip0_96_2021)">
<path d="M100.8 45.7675V96.606C100.8 97.6843 99.9271 98.5573 98.8487 98.5573H38.9513C37.8729 98.5573 37 97.6844 37 96.606V45.7675C37 44.6905 37.8729 43.8163 38.9513 43.8163H98.8489C99.9271 43.8164 100.8 44.6905 100.8 45.7675Z" fill="#EAF6FF"/>
<path d="M47.3635 49.3774L45.2197 50.0192C44.7897 50.1476 44.3365 49.9037 44.2069 49.4723L42.5137 43.8163H46.547L47.909 48.3644C48.0375 48.7946 47.7936 49.249 47.3635 49.3774Z" fill="#C8EFFE"/>
<path d="M89.7052 43.8164L88.0132 49.4724C87.8836 49.9038 87.4304 50.1477 87.0004 50.0193L84.8566 49.3775C84.4266 49.2491 84.1814 48.7947 84.3111 48.3646L85.6731 43.8165H89.7052V43.8164Z" fill="#C8EFFE"/>
<path d="M98.8485 43.817H91.1611C92.2388 43.817 93.1123 44.6905 93.1123 45.7681V96.6065C93.1123 97.6842 92.2388 98.5577 91.1611 98.5577H98.8485C99.926 98.5577 100.8 97.6842 100.8 96.6065V45.768C100.8 44.6905 99.9262 43.817 98.8485 43.817Z" fill="#C8EFFE"/>
<path d="M97.3338 48.7959V93.5778C97.3338 94.4136 96.6561 95.0914 95.8203 95.0914H41.9793C41.1437 95.0914 40.4658 94.4136 40.4658 93.5778V48.7959C40.4658 47.9602 41.1436 47.2823 41.9793 47.2823H95.8203C96.6561 47.2823 97.3338 47.9602 97.3338 48.7959Z" fill="#99E6FC"/>
<path d="M47.3633 49.3774L45.2195 50.0193C44.7895 50.1476 44.3363 49.9038 44.2067 49.4724L43.5508 47.2825H47.5855L47.909 48.3646C48.0373 48.7946 47.7935 49.2491 47.3633 49.3774Z" fill="#62DBFB"/>
<path d="M88.6679 47.2825L88.0132 49.4725C87.8836 49.9039 87.4304 50.1477 87.0004 50.0194L84.8566 49.3775C84.4266 49.2492 84.1814 48.7947 84.3111 48.3647L84.6346 47.2826H88.6679V47.2825Z" fill="#62DBFB"/>
<path d="M97.3344 48.7959V93.5778C97.3344 94.4136 96.6567 95.0914 95.8209 95.0914H93.1123V47.2823H95.8209C96.6567 47.2823 97.3344 47.9602 97.3344 48.7959Z" fill="#62DBFB"/>
<path d="M83.1759 64.3774H54.6239C53.1495 64.3774 51.8744 63.35 51.5607 61.9094L50.6234 57.6041C50.3984 56.5704 51.1166 55.5689 52.1678 55.4505L62.7159 54.2627C66.826 53.7999 70.975 53.7999 75.0851 54.2627L85.6319 55.4504C86.6831 55.5688 87.4014 56.5703 87.1763 57.604L86.239 61.9093C85.9254 63.35 84.6502 64.3774 83.1759 64.3774Z" fill="#62DBFB"/>
<path d="M85.6315 55.4505L75.0847 54.2629C71.9247 53.907 68.7418 53.8259 65.5713 54.0171C66.5248 54.0747 67.4773 54.1558 68.4276 54.2629L78.9744 55.4505C80.0257 55.5689 80.7439 56.5704 80.5188 57.6041L79.5815 61.9094C79.2679 63.35 77.9927 64.3774 76.5183 64.3774H83.1755C84.6499 64.3774 85.925 63.35 86.2386 61.9094L87.1759 57.6041C87.401 56.5704 86.6829 55.5689 85.6315 55.4505Z" fill="#01D0FB"/>
<path d="M66.9452 67.7445H62.8364C61.7564 67.7445 60.8809 66.869 60.8809 65.789C60.8809 65.056 60.9624 64.3251 61.124 63.6101L61.9524 59.9439C62.2627 58.5705 63.4828 57.5952 64.8908 57.5952C66.2987 57.5952 67.5189 58.5704 67.8292 59.9439L68.6576 63.6101C68.8192 64.3251 68.9007 65.056 68.9007 65.789C68.9007 66.869 68.0252 67.7445 66.9452 67.7445Z" fill="#EAF6FF"/>
<path d="M68.658 63.6101L67.8296 59.9439C67.5193 58.5705 66.2991 57.5952 64.8912 57.5952C64.3197 57.5952 63.7806 57.7581 63.3193 58.0407C63.9946 58.4545 64.5016 59.1278 64.6859 59.9437L65.5143 63.61C65.6759 64.325 65.7574 65.0558 65.7574 65.7889C65.7574 66.8689 64.8819 67.7444 63.8019 67.7444H66.9457C68.0257 67.7444 68.9012 66.8689 68.9012 65.7889C68.9011 65.056 68.8196 64.3251 68.658 63.6101Z" fill="#C8EFFE"/>
<path d="M74.9648 67.7445H70.8559C69.7759 67.7445 68.9004 66.869 68.9004 65.789C68.9004 65.056 68.9819 64.3251 69.1435 63.6101L69.9719 59.9439C70.2822 58.5705 71.5024 57.5952 72.9103 57.5952C74.3183 57.5952 75.5385 58.5704 75.8487 59.9439L76.6771 63.6101C76.8388 64.3251 76.9202 65.056 76.9202 65.789C76.9201 66.869 76.0447 67.7445 74.9648 67.7445Z" fill="#EAF6FF"/>
<path d="M76.6775 63.6101L75.8491 59.9439C75.5388 58.5705 74.3186 57.5952 72.9107 57.5952C72.3392 57.5952 71.8002 57.7581 71.3389 58.0407C72.0141 58.4545 72.5212 59.1278 72.7055 59.9437L73.5339 63.61C73.6955 64.325 73.777 65.0558 73.777 65.7889C73.777 66.8689 72.9015 67.7444 71.8215 67.7444H74.9651C76.0451 67.7444 76.9206 66.8689 76.9206 65.7889C76.9206 65.056 76.8391 64.3251 76.6775 63.6101Z" fill="#C8EFFE"/>
<path d="M82.4262 67.7446H78.6948C77.714 67.7446 76.9189 66.9494 76.9189 65.9688C76.9189 65.303 76.993 64.6393 77.1398 63.99L77.892 60.6605C78.1738 59.4133 79.2819 58.5277 80.5605 58.5277C81.8391 58.5277 82.9473 59.4133 83.229 60.6605L83.9813 63.99C84.128 64.6393 84.2021 65.303 84.2021 65.9688C84.2021 66.9494 83.407 67.7446 82.4262 67.7446Z" fill="#EAF6FF"/>
<path d="M83.9819 63.9898L83.2296 60.6604C82.9477 59.4132 81.8397 58.5276 80.5611 58.5276C79.9814 58.5276 79.4377 58.7111 78.9893 59.0264C79.5299 59.4065 79.9319 59.9788 80.0859 60.6605L80.8382 63.99C80.985 64.6393 81.059 65.303 81.059 65.9688C81.059 66.9496 80.2639 67.7446 79.2832 67.7446H82.4269C83.4077 67.7446 84.2027 66.9494 84.2027 65.9688C84.2027 65.303 84.1285 64.6393 83.9819 63.9898Z" fill="#C8EFFE"/>
<path d="M55.3736 67.7446H59.105C60.0858 67.7446 60.8808 66.9494 60.8808 65.9688C60.8808 65.303 60.8068 64.6393 60.66 63.99L59.9077 60.6605C59.626 59.4133 58.5179 58.5277 57.2392 58.5277C55.9606 58.5277 54.8525 59.4133 54.5707 60.6605L53.8185 63.99C53.6718 64.6393 53.5977 65.303 53.5977 65.9688C53.5977 66.9494 54.3928 67.7446 55.3736 67.7446Z" fill="#EAF6FF"/>
<path d="M60.6596 63.9898L59.9073 60.6604C59.6256 59.4132 58.5174 58.5276 57.2388 58.5276C56.6591 58.5276 56.1155 58.7111 55.667 59.0264C56.2077 59.4065 56.6097 59.9788 56.7637 60.6605L57.5159 63.99C57.6626 64.6393 57.7368 65.303 57.7368 65.9688C57.7368 66.9496 56.9416 67.7446 55.9609 67.7446H59.1046C60.0854 67.7446 60.8804 66.9494 60.8804 65.9688C60.8804 65.303 60.8064 64.6393 60.6596 63.9898Z" fill="#C8EFFE"/>
<path d="M83.1759 75.4441H54.6239C53.1495 75.4441 51.8744 76.4715 51.5607 77.9121L50.6234 82.2174C50.3984 83.2511 51.1166 84.2526 52.1678 84.371L62.7159 85.5588C66.826 86.0216 70.975 86.0216 75.0851 85.5588L85.6319 84.3711C86.6831 84.2527 87.4014 83.2512 87.1763 82.2175L86.239 77.9122C85.9254 76.4715 84.6502 75.4441 83.1759 75.4441Z" fill="#62DBFB"/>
<path d="M87.1759 82.2174L86.2386 77.9121C85.925 76.4715 84.6499 75.4441 83.1755 75.4441H76.5183C77.9927 75.4441 79.2679 76.4715 79.5815 77.9121L80.5188 82.2174C80.7439 83.2511 80.0256 84.2526 78.9744 84.371L68.4276 85.5586C67.4773 85.6657 66.5248 85.7468 65.5713 85.8044C68.7418 85.9956 71.9247 85.9145 75.0847 85.5586L85.6315 84.371C86.6829 84.2526 87.401 83.2511 87.1759 82.2174Z" fill="#01D0FB"/>
<path d="M66.9452 72.077H62.8364C61.7564 72.077 60.8809 72.9525 60.8809 74.0325C60.8809 74.7656 60.9624 75.4964 61.124 76.2114L61.9524 79.8777C62.2627 81.251 63.4828 82.2263 64.8908 82.2263C66.2987 82.2263 67.5189 81.2511 67.8292 79.8777L68.6576 76.2114C68.8192 75.4964 68.9007 74.7656 68.9007 74.0325C68.9007 72.9525 68.0252 72.077 66.9452 72.077Z" fill="#EAF6FF"/>
<path d="M66.9447 72.077H63.801C64.881 72.077 65.7565 72.9525 65.7565 74.0325C65.7565 74.7656 65.675 75.4964 65.5134 76.2114L64.6849 79.8777C64.5005 80.6936 63.9936 81.3669 63.3184 81.7807C63.7797 82.0635 64.3187 82.2262 64.8902 82.2262C66.2981 82.2262 67.5183 81.251 67.8286 79.8776L68.657 76.2113C68.8186 75.4963 68.9001 74.7655 68.9001 74.0324C68.9002 72.9525 68.0247 72.077 66.9447 72.077Z" fill="#C8EFFE"/>
<path d="M74.9648 72.077H70.8559C69.7759 72.077 68.9004 72.9525 68.9004 74.0325C68.9004 74.7656 68.9819 75.4964 69.1435 76.2114L69.9719 79.8777C70.2822 81.251 71.5024 82.2263 72.9103 82.2263C74.3183 82.2263 75.5385 81.2511 75.8487 79.8777L76.6771 76.2114C76.8388 75.4964 76.9202 74.7656 76.9202 74.0325C76.9201 72.9525 76.0447 72.077 74.9648 72.077Z" fill="#EAF6FF"/>
<path d="M74.9651 72.077H71.8215C72.9015 72.077 73.777 72.9525 73.777 74.0325C73.777 74.7656 73.6955 75.4964 73.5339 76.2114L72.7055 79.8777C72.5212 80.6936 72.0141 81.3669 71.3389 81.7807C71.8002 82.0635 72.3392 82.2262 72.9107 82.2262C74.3187 82.2262 75.5388 81.251 75.8491 79.8776L76.6775 76.2113C76.8391 75.4963 76.9206 74.7655 76.9206 74.0324C76.9205 72.9525 76.0451 72.077 74.9651 72.077Z" fill="#C8EFFE"/>
<path d="M82.4262 72.077H78.6948C77.714 72.077 76.9189 72.8722 76.9189 73.8528C76.9189 74.5186 76.993 75.1823 77.1398 75.8316L77.892 79.1611C78.1738 80.4083 79.2819 81.2939 80.5605 81.2939C81.8391 81.2939 82.9473 80.4083 83.229 79.1611L83.9813 75.8316C84.128 75.1823 84.2021 74.5186 84.2021 73.8528C84.2021 72.8722 83.407 72.077 82.4262 72.077Z" fill="#EAF6FF"/>
<path d="M82.4269 72.077H79.2832C80.264 72.077 81.059 72.8722 81.059 73.8528C81.059 74.5186 80.985 75.1823 80.8382 75.8316L80.0859 79.1611C79.9319 79.8428 79.5299 80.415 78.9893 80.7952C79.4377 81.1105 79.9814 81.294 80.5611 81.294C81.8397 81.294 82.9479 80.4083 83.2296 79.1612L83.9819 75.8318C84.1285 75.1824 84.2027 74.5187 84.2027 73.853C84.2028 72.8722 83.4077 72.077 82.4269 72.077Z" fill="#C8EFFE"/>
<path d="M55.3736 72.077H59.105C60.0858 72.077 60.8808 72.8722 60.8808 73.8528C60.8808 74.5186 60.8068 75.1823 60.66 75.8316L59.9077 79.1611C59.626 80.4083 58.5179 81.2939 57.2392 81.2939C55.9606 81.2939 54.8525 80.4083 54.5707 79.1611L53.8185 75.8316C53.6718 75.1823 53.5977 74.5186 53.5977 73.8528C53.5977 72.8722 54.3928 72.077 55.3736 72.077Z" fill="#EAF6FF"/>
<path d="M59.1046 72.077H55.9609C56.9417 72.077 57.7368 72.8722 57.7368 73.8528C57.7368 74.5186 57.6627 75.1823 57.5159 75.8316L56.7637 79.1611C56.6097 79.8428 56.2077 80.415 55.667 80.7952C56.1155 81.1105 56.6591 81.294 57.2388 81.294C58.5174 81.294 59.6256 80.4083 59.9073 79.1612L60.6596 75.8318C60.8064 75.1824 60.8804 74.5187 60.8804 73.853C60.8804 72.8722 60.0854 72.077 59.1046 72.077Z" fill="#C8EFFE"/>
<path d="M50.1535 49.3773L48.0103 50.0189C47.5799 50.1477 47.1265 49.9033 46.9976 49.4729L44.4406 40.9311C44.3118 40.5007 44.5563 40.0473 44.9867 39.9184L47.1298 39.2768C47.5602 39.148 48.0137 39.3925 48.1425 39.8229L50.6995 48.3646C50.8284 48.7951 50.5839 49.2484 50.1535 49.3773Z" fill="#6C7FD8"/>
<path d="M87.6468 49.3773L89.79 50.0189C90.2204 50.1477 90.6738 49.9033 90.8027 49.4729L93.3597 40.9311C93.4885 40.5007 93.244 40.0473 92.8136 39.9184L90.6705 39.2768C90.2401 39.148 89.7866 39.3925 89.6578 39.8229L87.1008 48.3646C86.9719 48.7951 87.2164 49.2484 87.6468 49.3773Z" fill="#6C7FD8"/>
<path d="M54.5578 91.9959C55.088 91.9959 55.5179 91.5661 55.5179 91.0358C55.5179 90.5055 55.088 90.0757 54.5578 90.0757C54.0275 90.0757 53.5977 90.5055 53.5977 91.0358C53.5977 91.5661 54.0275 91.9959 54.5578 91.9959Z" fill="#6C7FD8"/>
<path d="M50.5825 91.9986H44.993C44.4612 91.9986 44.0303 91.5676 44.0303 91.0359C44.0303 90.5041 44.4613 90.0731 44.993 90.0731H50.5825C51.1143 90.0731 51.5452 90.5041 51.5452 91.0359C51.5452 91.5676 51.1143 91.9986 50.5825 91.9986Z" fill="#6C7FD8"/>
</g>
<defs>
<clipPath id="clip0_96_2021">
<rect width="63.8" height="63.8" fill="white" transform="translate(37 37)"/>
</clipPath>
</defs>
</svg>
