<svg width="138" height="138" viewBox="0 0 138 138" fill="none" xmlns="http://www.w3.org/2000/svg">
<circle cx="69" cy="69" r="69" fill="#DF646E" fill-opacity="0.05"/>
<g clip-path="url(#clip0_96_2028)">
<path d="M90.0024 42.7068L81.4752 41.5015C77.2301 40.9015 73.0013 42.6971 70.4847 46.1681C69.7035 47.2458 68.0976 47.2458 67.3163 46.1681C64.7999 42.6971 60.5709 40.9015 56.3258 41.5015L47.7986 42.7068C47.0582 42.8114 46.3418 42.9788 45.6542 43.2026C45.6542 43.2026 45.3316 43.3437 45.1645 43.4062C39.8256 45.4026 36.531 50.8691 37.2807 56.754C37.5047 58.5129 38.9501 59.6819 40.7233 59.6819L97.1555 59.6875C97.5635 59.6875 97.8582 59.6402 98.2248 59.5113C98.3746 59.4587 98.8075 59.4149 98.8075 59.4149C99.8142 58.8998 100.547 57.9122 100.699 56.7234C101.566 49.9121 96.8008 43.6677 90.0024 42.7068V42.7068Z" fill="#E27F86"/>
<path d="M98.5254 56.8589L98.3662 55.8242C97.9464 53.0925 95.6345 51.1092 92.8707 51.1092C91.3798 51.1092 90.0218 51.6869 89.0209 52.6472C88.8206 52.8393 88.5073 52.8394 88.307 52.6473C87.3051 51.6869 85.9471 51.1092 84.4561 51.1092C82.7895 51.1092 81.287 51.8308 80.2646 53.0031C80.0747 53.2208 79.7429 53.2417 79.5316 53.0449C78.2313 51.834 76.4861 51.1092 74.5756 51.1092C72.4917 51.1092 70.6037 51.9711 69.2738 53.3862C69.0711 53.6019 68.7297 53.6019 68.5268 53.3862C67.1969 51.9711 65.309 51.1092 63.225 51.1092C61.3143 51.1092 59.57 51.8352 58.2681 53.0464C58.0566 53.2431 57.7248 53.2219 57.5351 53.0042C56.5135 51.8317 55.0111 51.1092 53.3445 51.1092C51.8533 51.1092 50.4953 51.687 49.4934 52.6466C49.2931 52.8384 48.98 52.8382 48.7799 52.6464C47.7789 51.6869 46.4208 51.1092 44.9298 51.1092C42.6632 51.092 40.6762 52.492 39.811 54.5056C39.6994 54.7652 39.3107 54.6762 39.3192 54.3938C39.4591 49.6862 41.9239 45.463 45.665 43.1991C40.0334 45.0258 36.329 50.6497 37.1017 56.7228C37.2134 57.6034 37.6447 58.3724 38.2686 58.9218C38.816 59.384 39.6578 59.8178 40.596 59.7998H42.9066H97.2043C97.7794 59.7998 98.3256 59.6625 98.807 59.4147C98.7506 58.5586 98.655 57.7036 98.5254 56.8589V56.8589Z" fill="#DF646E"/>
<path d="M98.1522 85.7846L39.7277 85.6945C38.3097 85.6945 37.1603 84.545 37.1603 83.1271L37.1152 74.387C37.1152 73.422 37.5858 72.6461 38.373 72.2075C38.5616 72.1025 38.9259 71.8442 38.9259 71.8442C39.131 71.7914 39.3462 71.7633 39.5679 71.7633H98.2327C99.6507 71.7633 100.8 72.9127 100.8 74.3307V83.3166C100.8 83.5384 100.772 83.7537 100.719 83.959C100.719 83.959 100.297 84.5167 100.105 84.7769C99.6376 85.4105 99.0001 85.7846 98.1522 85.7846V85.7846Z" fill="#B9C3CD"/>
<path d="M84.4565 52.9069C83.9005 52.9069 83.3694 53.0283 82.8906 53.2476C82.8906 53.2476 82.5479 53.5256 82.3823 53.6361C81.5291 54.2057 81.0567 55.0538 80.891 56.1311L80.3993 59.2662L80.3857 63.5574C80.3857 64.6208 81.2479 65.483 82.3113 65.483L86.6649 65.5595C87.6223 65.5595 88.4345 64.9099 88.5952 64.0054C88.6131 63.9052 88.6634 63.7002 88.6634 63.7002V59.2663L88.176 56.0979C87.8937 54.2622 86.314 52.9069 84.4565 52.9069V52.9069Z" fill="#F9F8F9"/>
<path d="M88.6637 63.6996C88.6637 64.7638 87.8011 65.6252 86.7382 65.6252H82.1747C81.1118 65.6252 80.2491 64.7638 80.2491 63.6996L79.9736 61.6211L80.2491 59.2658L80.7369 56.0976C80.9346 54.8113 81.7689 53.7612 82.8908 53.2477L82.4147 57.3479C82.2555 58.7241 82.1747 60.1079 82.1747 61.493V62.5443C82.1747 63.1823 82.692 63.6996 83.33 63.6996H88.6637Z" fill="#E8E8E8"/>
<path d="M100.719 83.959C100.434 85.0655 99.4286 85.8845 98.2322 85.8845H39.5674C38.1489 85.8845 37 84.7343 37 83.3171V74.3313C37 73.1349 37.8176 72.1291 38.9254 71.8442L38.9255 82.8036C38.9255 83.4416 39.4429 83.959 40.0809 83.959H100.719Z" fill="#A2ABB8"/>
<path d="M62.5252 75.6149L63.1571 78.8645L62.5252 82.0333H52.1979L51.4609 78.8235L52.1979 75.6149H62.5252Z" fill="#E8E8E8"/>
<path d="M85.4744 75.6149L86.2468 78.8235L85.4744 82.0333H73.9995L73.3115 78.8645L73.9995 75.6149H85.4744Z" fill="#FFE07D"/>
<path d="M67.3003 90.3049L64.4402 94.5602C63.9211 95.3206 64.3419 96.3834 65.2625 96.3834L65.2816 96.4125H71.2569C72.1775 96.4125 72.7221 95.3815 72.2029 94.621L69.3534 90.4468L69.1927 90.3049C68.7377 89.6386 67.7551 89.6386 67.3003 90.3049V90.3049Z" fill="#B9C3CD"/>
<path d="M69.3532 90.4468L65.2815 96.4126L65.2674 96.4122C64.347 96.4122 63.8027 95.3814 64.3213 94.6214L67.3161 90.235C67.7706 89.5688 68.7539 89.5688 69.2083 90.235L69.3532 90.4468Z" fill="#A2ABB8"/>
<path d="M52.1981 75.6149V82.0333H41.4934C41.1391 82.0333 40.8516 81.7458 40.8516 81.3915V76.2567C40.8516 75.9011 41.1391 75.6149 41.4934 75.6149H52.1981Z" fill="#DCDBDD"/>
<path d="M62.5254 75.6149H73.9991V82.0333H62.5254V75.6149Z" fill="#F9F8F9"/>
<path d="M96.9486 76.2567V81.3915C96.9486 81.7458 96.661 82.0333 96.3067 82.0333H85.4736V75.6149H96.3067C96.661 75.6149 96.9486 75.9011 96.9486 76.2567Z" fill="#FFD064"/>
<path d="M74.5748 52.9069C73.1357 52.9069 71.8112 53.4662 70.8254 54.3925C70.8254 54.3925 70.6145 54.7864 70.4796 54.9459C69.846 55.6944 69.4552 56.5527 69.2969 57.5816L69.0347 59.2909V64.3905C68.9001 65.4294 69.8148 66.4881 70.8783 66.4881L78.1598 66.5045C79.1436 66.5045 80.0617 65.8465 80.1987 64.9067C80.2097 64.8307 80.2493 64.6786 80.2493 64.6786V59.2663L79.985 57.5484C79.5743 54.8781 77.2766 52.9069 74.5748 52.9069V52.9069Z" fill="#F9F8F9"/>
<path d="M80.249 64.6791C80.249 65.742 79.3864 66.6046 78.3235 66.6046H70.8254C69.762 66.6046 68.8999 65.7425 68.8999 64.6791V63.7001L68.3926 61.7357L68.8999 59.2656L69.1643 57.548C69.3569 56.3003 69.9598 55.2049 70.8251 54.3923L70.8254 63.652C70.8254 64.2191 71.2853 64.679 71.8524 64.679H80.249V64.6791Z" fill="#E8E8E8"/>
<path d="M63.2262 52.9069C61.7871 52.9069 60.4625 53.4662 59.4768 54.3925C59.4768 54.3925 59.2659 54.7864 59.131 54.9459C58.4973 55.6944 58.1066 56.5527 57.9483 57.5816L57.686 59.2909V64.3905C57.5515 65.4294 58.4661 66.4881 59.5297 66.4881L66.8112 66.5045C67.795 66.5045 68.7131 65.8465 68.8501 64.9067C68.8611 64.8307 68.9006 64.6786 68.9006 64.6786V59.2663L68.6363 57.5484C68.2256 54.8781 65.9279 52.9069 63.2262 52.9069V52.9069Z" fill="#F9F8F9"/>
<path d="M68.9004 64.6791C68.9004 65.742 68.0378 66.6046 66.9749 66.6046H59.4768C58.4134 66.6046 57.5513 65.7425 57.5513 64.6791V63.7001L57.0439 61.7357L57.5513 59.2656L57.8157 57.548C58.0083 56.3003 58.6112 55.2049 59.4764 54.3923L59.4768 63.652C59.4768 64.2191 59.9366 64.679 60.5038 64.679H68.9004V64.6791Z" fill="#E8E8E8"/>
<path d="M53.3442 52.9069C52.7882 52.9069 52.2571 53.0283 51.7783 53.2476C51.7783 53.2476 51.4356 53.5256 51.27 53.6361C50.4168 54.2057 49.9444 55.0538 49.7787 56.1311L49.287 59.2662L49.2734 63.5574C49.2734 64.6208 50.1356 65.483 51.199 65.483L55.5526 65.5595C56.51 65.5595 57.3222 64.9099 57.4829 64.0054C57.5008 63.9052 57.5511 63.7002 57.5511 63.7002V59.2663L57.0637 56.0979C56.7813 54.2622 55.2015 52.9069 53.3442 52.9069V52.9069Z" fill="#F9F8F9"/>
<path d="M57.5514 63.6996C57.5514 64.7638 56.6888 65.6252 55.6259 65.6252H51.0624C49.9995 65.6252 49.1368 64.7638 49.1368 63.6996L48.8613 61.6211L49.1368 59.2658L49.6246 56.0976C49.8223 54.8113 50.6566 53.7612 51.7785 53.2477L51.3024 57.3479C51.1432 58.7241 51.0624 60.1079 51.0624 61.493V62.5443C51.0624 63.1823 51.5797 63.6996 52.2177 63.6996H57.5514Z" fill="#E8E8E8"/>
<path d="M44.9303 52.9069C44.3224 52.9069 43.7443 53.052 43.2316 53.3116C43.2316 53.3116 43.0324 53.5686 42.9166 53.6443C42.0479 54.2125 41.5561 55.0305 41.3885 56.1202L41.1586 57.4588C40.9697 58.6861 40.875 59.9258 40.875 61.1676L40.8868 64.2614C40.8868 65.0104 41.3212 65.6914 42.0003 66.0073L43.6922 66.8158C44.477 67.1809 45.3829 67.1809 46.1678 66.8158L47.9325 65.9855C48.6117 65.6696 49.025 65.1968 49.025 64.4478L49.1372 63.643V59.2662L48.6498 56.0977C48.3675 54.2622 46.7878 52.9069 44.9303 52.9069V52.9069Z" fill="#F9F8F9"/>
<path d="M49.137 63.6432V64.398C49.137 65.1464 48.7031 65.828 48.024 66.1438L46.1678 67.0065C45.3834 67.3723 44.4772 67.3723 43.6928 67.0065L41.8366 66.1438C41.1575 65.828 40.7236 65.1464 40.7236 64.398V61.131C40.7236 59.8897 40.8186 58.6496 41.0073 57.4224L41.2114 56.0976C41.4014 54.8627 42.1779 53.8444 43.2318 53.3118L42.9882 56.644C42.9438 57.251 42.8804 57.8563 42.8081 58.4607C42.7023 59.3462 42.6492 60.2414 42.6492 61.1311V63.7429C42.6492 64.1426 42.881 64.5058 43.2433 64.6743L44.5054 65.2608C44.6389 65.3237 44.7827 65.3558 44.9303 65.3558C45.0792 65.3558 45.2217 65.3237 45.3565 65.2608L49.137 63.6432Z" fill="#E8E8E8"/>
<path d="M92.8004 52.9069C92.1925 52.9069 91.6144 53.052 91.1017 53.3116C91.1017 53.3116 90.9025 53.5686 90.7867 53.6443C89.918 54.2125 89.4262 55.0305 89.2586 56.1202L89.0287 57.4588C88.8399 58.6861 88.7451 59.9258 88.7451 61.1676L88.7569 64.2614C88.7569 65.0104 89.1913 65.6914 89.8704 66.0073L91.5623 66.8158C92.3472 67.1809 93.2531 67.1809 94.0379 66.8158L95.8026 65.9855C96.4818 65.6696 96.8952 65.1968 96.8952 64.4478L97.0074 63.643V61.3278C97.0074 59.9554 96.9026 58.585 96.6939 57.2287L96.5199 56.0979C96.2377 54.2622 94.6579 52.9069 92.8004 52.9069V52.9069Z" fill="#F9F8F9"/>
<path d="M97.0071 63.6432V64.398C97.0071 65.1464 96.5732 65.828 95.8941 66.1438L94.0379 67.0065C93.2536 67.3723 92.3473 67.3723 91.5629 67.0065L89.7067 66.1438C89.0276 65.828 88.5938 65.1464 88.5938 64.398V61.131C88.5938 59.8897 88.6887 58.6496 88.8774 57.4224L89.0816 56.0976C89.2715 54.8627 90.048 53.8444 91.102 53.3118L90.8583 56.644C90.8139 57.251 90.7505 57.8563 90.6782 58.4607C90.5724 59.3462 90.5193 60.2414 90.5193 61.1311V63.7429C90.5193 64.1426 90.7511 64.5058 91.1134 64.6743L92.3755 65.2608C92.509 65.3237 92.6528 65.3558 92.8004 65.3558C92.9493 65.3558 93.0918 65.3237 93.2266 65.2608L97.0071 63.6432Z" fill="#E8E8E8"/>
</g>
<defs>
<clipPath id="clip0_96_2028">
<rect width="63.8" height="63.8" fill="white" transform="translate(37 37)"/>
</clipPath>
</defs>
</svg>
