<svg width="100" height="100" viewBox="0 0 100 100" fill="none" xmlns="http://www.w3.org/2000/svg">
<rect width="100" height="100" rx="10" fill="#37D4E9" fill-opacity="0.1"/>
<path d="M62.4695 53.0411C62.4716 52.0812 62.3362 51.1259 62.0673 50.2045C61.6441 50.5016 61.1662 50.7116 60.6612 50.8225C60.1561 50.9333 59.6341 50.9428 59.1255 50.8502C58.6168 50.7576 58.1316 50.5649 57.698 50.2832C57.2644 50.0015 56.8911 49.6365 56.5998 49.2094C56.0508 49.7073 55.3918 50.0682 54.6766 50.2625C53.9613 50.4567 53.2103 50.4788 52.4848 50.327C51.7594 50.1752 51.0803 49.8537 50.503 49.3889C49.9257 48.9241 49.4667 48.3292 49.1635 47.653C48.8001 48.0281 48.3651 48.3264 47.8841 48.5301C47.4032 48.7338 46.8863 48.8388 46.364 48.8388C45.8417 48.8388 45.3247 48.7338 44.8438 48.5301C44.3629 48.3264 43.9278 48.0281 43.5644 47.653C43.2607 48.3311 42.8002 48.9274 42.2209 49.3927C41.6416 49.8581 40.9601 50.1792 40.2324 50.3296C39.5048 50.48 38.7518 50.4553 38.0355 50.2578C37.3192 50.0602 36.6601 49.6953 36.1124 49.1931C35.8237 49.6205 35.4531 49.9866 35.0222 50.2701C34.5912 50.5536 34.1084 50.749 33.6016 50.845C33.0947 50.9409 32.5739 50.9356 32.0691 50.8292C31.5644 50.7228 31.0857 50.5176 30.6607 50.2253C30.3967 51.1405 30.2641 52.0886 30.2669 53.0411C30.2563 54.401 30.5268 55.7484 31.0614 56.9988C31.596 58.2492 32.3832 59.3756 33.3736 60.3075C34.0708 60.9265 34.6279 61.6873 35.0075 62.5389C35.3871 63.3905 35.5804 64.3133 35.5747 65.2457C35.5696 65.3672 35.5696 65.4836 35.5696 65.6057C35.5428 67.4533 35.9191 69.2845 36.6722 70.9719C37.4254 72.6592 38.5374 74.1621 39.9307 75.3758C40.1202 75.5311 40.3501 75.6291 40.5935 75.6581C40.8368 75.6872 41.0833 75.6461 41.3041 75.5397C41.5248 75.4333 41.7106 75.266 41.8395 75.0576C41.9684 74.8492 42.035 74.6083 42.0316 74.3633C42.0265 74.199 42.0265 74.0297 42.0265 73.8604C42.0265 67.2791 43.9688 61.9354 46.3662 61.9354C48.7636 61.9354 50.7115 67.2758 50.7115 73.8604C50.7115 74.0291 50.7115 74.1979 50.7059 74.3633C50.7026 74.6083 50.7694 74.8492 50.8983 75.0576C51.0273 75.2659 51.2131 75.4331 51.4338 75.5395C51.6546 75.6459 51.9012 75.687 52.1445 75.658C52.3878 75.629 52.6178 75.5311 52.8074 75.3758C54.2007 74.1621 55.3126 72.6592 56.0658 70.9719C56.819 69.2845 57.1953 67.4533 57.1685 65.6057C57.1685 65.4836 57.1685 65.3672 57.1628 65.2457C57.1572 64.3133 57.3508 63.3904 57.7306 62.5388C58.1104 61.6871 58.6676 60.9264 59.365 60.3075C60.355 59.3754 61.1418 58.2489 61.676 56.9985C62.2102 55.7481 62.4804 54.4008 62.4695 53.0411Z" fill="#37D4E9"/>
<path d="M36.8291 31.9491H55.6751V41.3721H36.8291V31.9491Z" fill="#FFC26F"/>
<path d="M42.0244 37.5387V31.9525C42.0244 31.6914 41.9207 31.4411 41.7361 31.2565C41.5515 31.0718 41.3011 30.9681 41.04 30.9681C40.779 30.9681 40.5286 31.0718 40.344 31.2565C40.1594 31.4411 40.0557 31.6914 40.0557 31.9525V37.5387C40.0557 37.7998 40.1594 38.0502 40.344 38.2348C40.5286 38.4194 40.779 38.5231 41.04 38.5231C41.3011 38.5231 41.5515 38.4194 41.7361 38.2348C41.9207 38.0502 42.0244 37.7998 42.0244 37.5387V37.5387Z" fill="#F89068"/>
<path d="M47.2393 37.5387V31.9525C47.2393 31.6914 47.1355 31.4411 46.9509 31.2565C46.7663 31.0718 46.516 30.9681 46.2549 30.9681C45.9938 30.9681 45.7434 31.0718 45.5588 31.2565C45.3742 31.4411 45.2705 31.6914 45.2705 31.9525V37.5387C45.2705 37.7998 45.3742 38.0502 45.5588 38.2348C45.7434 38.4194 45.9938 38.5231 46.2549 38.5231C46.516 38.5231 46.7663 38.4194 46.9509 38.2348C47.1355 38.0502 47.2393 37.7998 47.2393 37.5387V37.5387Z" fill="#F89068"/>
<path d="M52.4531 37.5387V31.9525C52.4531 31.6914 52.3494 31.4411 52.1648 31.2565C51.9802 31.0718 51.7298 30.9681 51.4688 30.9681C51.2077 30.9681 50.9573 31.0718 50.7727 31.2565C50.5881 31.4411 50.4844 31.6914 50.4844 31.9525V37.5387C50.4844 37.7998 50.5881 38.0502 50.7727 38.2348C50.9573 38.4194 51.2077 38.5231 51.4688 38.5231C51.7298 38.5231 51.9802 38.4194 52.1648 38.2348C52.3494 38.0502 52.4531 37.7998 52.4531 37.5387V37.5387Z" fill="#F89068"/>
<path d="M28.9648 47.0101C28.968 48.045 29.3805 49.0367 30.1123 49.7686C30.8442 50.5004 31.8359 50.9129 32.8708 50.9161C33.5105 50.9142 34.14 50.7559 34.7045 50.4552C35.269 50.1544 35.7514 49.7202 36.1097 49.1903C36.6572 49.6933 37.3163 50.059 38.0328 50.2573C38.7494 50.4556 39.5027 50.4807 40.2309 50.3307C40.9591 50.1807 41.6411 49.8598 42.2209 49.3944C42.8007 48.929 43.2616 48.3326 43.5657 47.6541C43.9284 48.0291 44.3628 48.3272 44.843 48.5308C45.3233 48.7344 45.8396 48.8393 46.3613 48.8393C46.8829 48.8393 47.3993 48.7344 47.8795 48.5308C48.3598 48.3272 48.7942 48.0291 49.1569 47.6541C49.53 48.48 50.1333 49.1809 50.8945 49.6727C51.6557 50.1645 52.5425 50.4265 53.4488 50.4273C54.6132 50.428 55.7358 49.9927 56.5954 49.2072C56.9352 49.7066 57.3863 50.1203 57.9133 50.4156C58.4402 50.711 59.0285 50.8799 59.6318 50.9091C60.2352 50.9384 60.8371 50.8271 61.3901 50.584C61.9431 50.341 62.4321 49.9729 62.8185 49.5087C63.205 49.0444 63.4784 48.4968 63.6172 47.9089C63.756 47.321 63.7563 46.7089 63.6182 46.1209C63.4801 45.5329 63.2073 44.9849 62.8214 44.5202C62.4354 44.0556 61.9468 43.6869 61.3941 43.4433C61.6812 42.7309 61.7888 41.959 61.7075 41.1953C61.6261 40.4316 61.3583 39.6996 60.9276 39.0638C60.4969 38.4279 59.9164 37.9077 59.2374 37.5489C58.5584 37.19 57.8016 37.0036 57.0336 37.006C56.5736 37.0047 56.1161 37.0726 55.6763 37.2074V41.3699H36.8325V37.006H36.7808C36.163 37.0047 35.5511 37.1254 34.9801 37.3612C34.4091 37.5969 33.8902 37.943 33.4532 38.3797C33.0162 38.8163 32.6697 39.335 32.4336 39.9058C32.1975 40.4766 32.0763 41.0885 32.0772 41.7063C32.0768 42.1967 32.1545 42.6841 32.3072 43.1502C31.3793 43.2846 30.5307 43.7486 29.9169 44.4575C29.3032 45.1663 28.9652 46.0724 28.9648 47.0101V47.0101Z" fill="#D8E1EB"/>
<path d="M26.9221 35.8872C27.9836 35.8872 28.8441 35.0267 28.8441 33.9652C28.8441 32.9036 27.9836 32.0431 26.9221 32.0431C25.8605 32.0431 25 32.9036 25 33.9652C25 35.0267 25.8605 35.8872 26.9221 35.8872Z" fill="#D8E1EB"/>
<path d="M74.0081 45.6578C74.0082 45.2631 73.8913 44.8772 73.672 44.5489C73.4528 44.2206 73.1412 43.9647 72.7765 43.8136C72.4118 43.6624 72.0105 43.6228 71.6233 43.6998C71.2362 43.7767 70.8805 43.9668 70.6013 44.2458C70.3222 44.5249 70.132 44.8805 70.055 45.2677C69.9779 45.6548 70.0174 46.0562 70.1685 46.4209C70.3195 46.7856 70.5753 47.0973 70.9035 47.3166C71.2317 47.5359 71.6176 47.653 72.0124 47.653C72.2744 47.6531 72.5339 47.6015 72.7761 47.5013C73.0182 47.4011 73.2382 47.2541 73.4235 47.0688C73.6089 46.8835 73.7559 46.6636 73.8562 46.4215C73.9565 46.1794 74.0081 45.9199 74.0081 45.6578V45.6578Z" fill="#D8E1EB"/>
<path d="M57.1901 31.9525C58.3559 31.9524 59.5041 32.2366 60.5353 32.7805L65.7165 35.5148C66.7476 36.0588 67.8958 36.3432 69.0617 36.3434H75.6255V29.3909H69.0617C67.8958 29.391 66.7475 29.1066 65.7165 28.5623L60.5353 25.8286C59.5043 25.2842 58.356 24.9998 57.1901 25H34.4955C34.3095 24.9999 34.1253 25.0365 33.9535 25.1076C33.7817 25.1787 33.6255 25.283 33.494 25.4145C33.3625 25.546 33.2581 25.7021 33.1869 25.8739C33.1157 26.0457 33.0791 26.2298 33.0791 26.4158V30.5361C33.0791 30.7221 33.1157 30.9063 33.1869 31.0781C33.2581 31.25 33.3624 31.4061 33.4939 31.5377C33.6255 31.6692 33.7816 31.7735 33.9535 31.8447C34.1253 31.9159 34.3095 31.9525 34.4955 31.9525H57.1901Z" fill="#F76363"/>
</svg>
