<svg width="100" height="100" viewBox="0 0 100 100" fill="none" xmlns="http://www.w3.org/2000/svg">
<rect width="100" height="100" rx="10" fill="#FF4155" fill-opacity="0.1"/>
<path d="M75.3315 54.9426L77.8908 55.5227C78.5605 55.7715 79 56.3762 79 57.0491V62.799C79 63.5068 78.5761 64.1553 77.9018 64.4789C70.1905 68.1807 61.6445 70.1117 52.9735 70.1117H47.1435C38.4724 70.1117 29.8095 68.1807 22.0982 64.4789C21.4239 64.1552 21 63.5067 21 62.7989V57.0489C21 56.3761 21.4395 55.7714 22.1092 55.5226L24.1515 54.9424H75.3315V54.9426Z" fill="#FD9BA1"/>
<path d="M36.1373 62.5271C36.1373 59.4678 37.5417 56.7372 39.7402 54.9426H24.1515L22.1092 55.5227C21.4395 55.7715 21 56.3762 21 57.0489V62.7989C21 63.5067 21.4239 64.1552 22.0982 64.4788C27.4229 67.0349 33.2014 68.7462 39.123 69.561C37.283 67.7817 36.1373 65.2889 36.1373 62.5271Z" fill="#FD828A"/>
<path d="M78.9991 37.834V43.9926C78.9991 44.7133 78.5603 45.3614 77.89 45.6282L75.5313 46.5197H24.3507L22.1091 45.6282C21.4387 45.3614 21 44.7133 21 43.9926V37.834C21 37.4537 21.1065 37.0911 21.296 36.7799C21.4855 36.4675 21.7605 36.2066 22.0974 36.0334C29.8085 32.0685 38.355 30 47.0255 30H52.8566C57.1924 30 61.5259 30.5171 65.7389 31.5303C69.9518 32.5423 74.0467 34.0515 77.9017 36.0334C78.5755 36.3809 78.9991 37.0747 78.9991 37.834Z" fill="#FD9BA1"/>
<path d="M39.5992 38.4342C39.5992 34.7376 41.7549 31.5448 44.8776 30.0436C36.9475 30.3564 29.1709 32.3963 22.0974 36.0334C21.7605 36.2066 21.4855 36.4675 21.296 36.7799C21.1065 37.0911 21 37.4537 21 37.834V43.9926C21 44.7133 21.4387 45.3614 22.1091 45.6282L24.3507 46.5197H44.3019C41.4938 44.918 39.5992 41.8983 39.5992 38.4342Z" fill="#FD828A"/>
<path d="M76.3997 40.4997C74.9934 39.7051 73.5366 39.3022 72.0697 39.3022C71.203 39.3022 70.3399 39.444 69.489 39.7226C69.4497 39.6984 69.4112 39.6733 69.3709 39.6505C67.734 38.7253 66.0435 38.2562 64.3463 38.2562C63.1862 38.2562 62.0292 38.4757 60.8901 38.91C60.8417 38.8797 60.7939 38.8488 60.7439 38.8205C58.8825 37.7694 56.9641 37.2364 55.0423 37.2364C53.3476 37.2364 51.6557 37.6514 50.0005 38.4715C48.347 37.652 46.6542 37.2364 44.9585 37.2364C43.0365 37.2364 41.1181 37.7694 39.2525 38.8228C38.0022 39.5318 37.2256 40.8667 37.2256 42.3066V46.5196H47.3094H52.6911H57.3932H62.7749H65.9174H71.2992H75.5321L77.8907 45.6281C78.0092 45.5809 78.12 45.5213 78.2229 45.452V43.6275C78.2231 42.3327 77.5238 41.134 76.3997 40.4997Z" fill="#FD828A"/>
<path d="M60.0846 50.3641V51.0684C60.0846 51.8944 59.502 52.6104 58.69 52.7648C56.2589 53.2281 53.8277 53.2281 51.3954 52.7648C50.5834 52.6104 50.0008 51.8944 50.0008 51.0684L49.2988 46.5828L50.0008 42.3066C50.0008 41.834 50.2535 41.3964 50.6642 41.1636C53.5832 39.5151 56.5022 39.5151 59.4212 41.1636C59.8319 41.3964 60.0846 41.834 60.0846 42.3066V42.9583L60.7866 46.7867L60.0846 50.3641Z" fill="#F9F7F8"/>
<path d="M39.9172 42.9583L40.8532 46.5148L39.9172 50.3641C39.9172 51.0625 39.4235 51.6674 38.7379 51.7984C36.6823 52.1892 34.6279 52.1892 32.5723 51.7984C31.8867 51.6674 31.393 51.0625 31.393 50.3641V49.6422L30.457 46.3109L31.393 43.6275V42.9583C31.393 42.5593 31.6071 42.1896 31.9546 41.9931C34.422 40.5985 36.8882 40.5985 39.3557 41.9931C39.7031 42.1896 39.9172 42.5593 39.9172 42.9583Z" fill="#EFEDEF"/>
<path d="M31.3925 43.6275V49.6422C31.3925 50.2097 30.9924 50.7022 30.4355 50.8075C28.766 51.1257 27.0965 51.1257 25.4269 50.8075C24.8689 50.7022 24.4688 50.2097 24.4688 49.6422V43.6275C24.4688 43.3023 24.6431 43.0016 24.925 42.8425C26.9292 41.71 28.9333 41.71 30.9374 42.8425C31.2194 43.0016 31.3925 43.3023 31.3925 43.6275Z" fill="#E5E1E5"/>
<path d="M68.6082 49.6422V50.3641C68.6082 51.0625 68.1145 51.6674 67.4289 51.7984C65.3733 52.1892 63.3189 52.1892 61.2633 51.7984C60.5777 51.6674 60.084 51.0625 60.084 50.3641V42.9583C60.084 42.5593 60.2981 42.1896 60.6456 41.9931C63.113 40.5985 65.5792 40.5985 68.0467 41.9931C68.3941 42.1896 68.6082 42.5593 68.6082 42.9583V43.6275L69.5442 46.9225L68.6082 49.6422Z" fill="#EFEDEF"/>
<path d="M49.9998 42.3066V51.0684C49.9998 51.8944 49.4172 52.6104 48.6052 52.7648C46.1729 53.2281 43.7417 53.2281 41.3106 52.7648C40.4987 52.6104 39.916 51.8944 39.916 51.0684V50.3641V42.9583V42.3066C39.916 41.834 40.1687 41.3964 40.5794 41.1636C43.4984 39.5151 46.4174 39.5151 49.3364 41.1636C49.7471 41.3964 49.9998 41.834 49.9998 42.3066Z" fill="#F9F7F8"/>
<path d="M75.5322 43.6275V49.6422C75.5322 50.2097 75.132 50.7022 74.574 50.8075C72.9045 51.1257 71.2349 51.1257 69.5654 50.8075C69.0085 50.7022 68.6084 50.2097 68.6084 49.6422V43.6275C68.6084 43.3023 68.7815 43.0016 69.0635 42.8425C71.0676 41.71 73.0718 41.71 75.0759 42.8425C75.3578 43.0016 75.5322 43.3023 75.5322 43.6275Z" fill="#E5E1E5"/>
<path d="M77.8909 55.5228L75.3316 54.9426H71.299H65.9173H62.7672H57.393H52.6834H47.3168H42.6072H37.233H28.7012V60.4058C28.7012 61.7742 29.4399 63.042 30.6304 63.7153C32.2671 64.6395 33.9573 65.1082 35.6542 65.1082C36.3165 65.1082 36.9776 65.0358 37.6353 64.8937C37.9846 65.6066 38.5429 66.2135 39.2566 66.618C41.118 67.6691 43.0363 68.2021 44.9582 68.2021C46.653 68.2021 48.3447 67.7872 50 66.967C51.6535 67.7866 53.3463 68.2021 55.042 68.2021C56.964 68.2021 58.8824 67.6691 60.7476 66.6158C61.4589 66.2125 62.0162 65.6064 62.3652 64.8939C63.0226 65.0359 63.6838 65.1082 64.346 65.1082C66.0429 65.1082 67.7331 64.6396 69.3712 63.7146C70.1073 63.2983 70.6702 62.6535 70.9926 61.8984C71.3505 61.9468 71.7097 61.9713 72.0694 61.9713C73.5364 61.9713 74.9933 61.5684 76.3983 60.7745C77.5236 60.1393 78.2227 58.9409 78.2227 57.6472V55.6871C78.1199 55.6224 78.0093 55.5668 77.8909 55.5228Z" fill="#FD828A"/>
<path d="M75.5316 52.4501V57.6471C75.5316 57.9711 75.3573 58.2718 75.0753 58.4309C73.0712 59.5634 71.0671 59.5634 69.0629 58.4309C68.781 58.2718 68.6078 57.9711 68.6078 57.6471L67.6719 55.2138L68.6078 53.8202V52.4501C68.6078 51.8827 69.008 51.3913 69.5649 51.2849C71.2344 50.9666 72.9039 50.9666 74.5734 51.2849C75.1315 51.3913 75.5316 51.8827 75.5316 52.4501Z" fill="#E5E1E5"/>
<path d="M60.084 60.4058V63.1318C60.084 63.6044 59.8313 64.042 59.4207 64.2748C56.5016 65.9233 53.5826 65.9233 50.6636 64.2748C50.2529 64.042 50.0002 63.6044 50.0002 63.1318L48.9473 57.5246L50.0002 55.1891C50.0002 54.3631 50.5829 53.6471 51.3948 53.4927C53.8271 53.0294 56.2583 53.0294 58.6894 53.4927C59.5014 53.6471 60.084 54.3631 60.084 55.1891L61.254 56.7771L60.084 60.4058Z" fill="#F9F7F8"/>
<path d="M24.1515 54.9426L22.1093 55.5228C21.9909 55.5668 21.8802 55.6224 21.7773 55.6869V57.6471C21.7773 58.9408 22.4765 60.1392 23.6007 60.7738C25.0069 61.5684 26.4637 61.9712 27.9307 61.9712C29.3977 61.9712 30.8545 61.5683 32.2595 60.7744C33.3842 60.1395 34.0828 58.9413 34.0828 57.6471V54.9426H24.1515Z" fill="#FD828A"/>
<path d="M39.9165 55.189L40.8524 57.4566L39.9165 60.4058C39.9165 60.8047 39.7024 61.1756 39.3549 61.3722C36.8875 62.7656 34.4212 62.7656 31.9538 61.3722C31.6063 61.1756 31.3922 60.8047 31.3922 60.4058V57.6471L29.9883 55.2138L31.3922 53.8202C31.3922 53.1217 31.8859 52.5157 32.5715 52.3846C34.6271 51.9939 36.6816 51.9939 38.7372 52.3846C39.4228 52.5157 39.9165 53.1217 39.9165 53.8202V55.189Z" fill="#EFEDEF"/>
<path d="M31.3925 53.8202V57.6471C31.3925 57.9711 31.2194 58.2718 30.9374 58.4309C28.9333 59.5634 26.9292 59.5634 24.925 58.4309C24.6431 58.2718 24.4688 57.9711 24.4688 57.6471V52.4501C24.4688 51.8827 24.8689 51.3913 25.4269 51.2849C27.0965 50.9666 28.766 50.9666 30.4355 51.2849C30.9924 51.3913 31.3925 51.8827 31.3925 52.4501V53.8202Z" fill="#E5E1E5"/>
<path d="M68.6082 57.6471V60.4058C68.6082 60.8047 68.3941 61.1756 68.0467 61.3722C65.5792 62.7656 63.113 62.7656 60.6456 61.3722C60.2981 61.1756 60.084 60.8047 60.084 60.4058V55.189V53.8202C60.084 53.1217 60.5777 52.5157 61.2633 52.3846C63.3189 51.9939 65.3733 51.9939 67.4289 52.3846C68.1145 52.5157 68.6082 53.1217 68.6082 53.8202V57.6471Z" fill="#EFEDEF"/>
<path d="M49.9998 55.189V63.1318C49.9998 63.6045 49.7471 64.042 49.3364 64.2749C46.4174 65.9233 43.4984 65.9233 40.5794 64.2749C40.1687 64.042 39.916 63.6045 39.916 63.1318V60.4058V55.189C39.916 54.3631 40.4987 53.647 41.3106 53.4926C43.7417 53.0293 46.1729 53.0293 48.6052 53.4926C49.4172 53.647 49.9998 54.3631 49.9998 55.189Z" fill="#F9F7F8"/>
</svg>
