<svg width="100" height="100" viewBox="0 0 100 100" fill="none" xmlns="http://www.w3.org/2000/svg">
<rect width="100" height="100" rx="10" fill="#FFDBBD" fill-opacity="0.1"/>
<path d="M78.5723 40.3478C74.8501 36.4147 62.5938 38.8164 53.8927 42.5896C52.6598 43.1236 51.3305 43.399 49.9869 43.399C48.6433 43.399 47.314 43.1236 46.0811 42.5896C37.379 38.8164 25.1237 36.4147 21.4015 40.3478C18.4292 43.4887 18.0983 49.4334 21.0712 54.4913C40.7561 63.9226 60.0333 63.9226 78.9027 54.4913C81.8755 49.4334 81.5446 43.4887 78.5723 40.3478V40.3478Z" fill="#FF6687"/>
<path d="M78.2635 51.3323C76.8165 48.8582 72.3947 50.2243 71.1146 53.7051C71.0987 53.7535 71.067 53.7952 71.0245 53.8233C70.9821 53.8515 70.9314 53.8647 70.8806 53.8606C70.8298 53.8565 70.7819 53.8354 70.7445 53.8008C70.7071 53.7662 70.6824 53.72 70.6745 53.6697C70.5636 52.8807 70.3387 52.1121 70.0066 51.3879C69.1314 49.7234 65.777 49.7082 63.5155 51.3879C62.7437 52.0459 62.1678 52.9035 61.8509 53.867C61.7194 54.1959 61.603 54.5348 61.4867 54.8687C61.472 54.9149 61.4416 54.9545 61.4008 54.9806C61.36 55.0067 61.3113 55.0177 61.2633 55.0117C61.2152 55.0057 61.1707 54.9831 61.1376 54.9477C61.1045 54.9123 61.0848 54.8665 61.0819 54.8182C61.0668 54.5804 61.0465 54.3476 61.0212 54.1351V54.0795C60.9959 53.8721 60.9757 53.6849 60.9504 53.5432C60.0093 48.1044 51.8941 49.5362 50.6394 54.9244C50.5332 55.3696 50.4421 55.83 50.3611 56.2904C50.3497 56.3779 50.3071 56.4583 50.2411 56.5169C50.1751 56.5754 50.0902 56.6082 50.0019 56.6092H49.9868C49.896 56.6115 49.8077 56.5802 49.7386 56.5214C49.6695 56.4626 49.6245 56.3803 49.6124 56.2904C49.5314 55.83 49.4403 55.3696 49.3341 54.9244C48.8135 52.6882 45.6691 56.594 45.9074 59.3539C46.0764 61.3037 49.3984 64.4663 49.6579 63.8997C49.8858 63.1835 49.9968 62.4352 49.9868 61.6837C49.9918 61.7798 49.9969 61.876 50.0019 61.967C50.0018 62.6239 50.1077 63.2766 50.3156 63.8997C50.5736 64.4663 51.4641 64.6839 52.0054 64.7294C54.461 64.9212 56.9309 64.8022 59.3567 64.3753C59.7755 64.3059 60.1641 64.1134 60.4732 63.8224C60.7822 63.5314 60.9976 63.155 61.092 62.7411V62.7664C61.1831 63.1307 61.6587 63.3735 62.3518 63.5152C64.8056 64.0009 70.0066 63.1459 70.6391 61.6888C70.6805 61.5829 70.716 61.4748 70.7453 61.365C71.0843 62.7765 77.7525 61.8355 78.4153 60.2468C78.8959 59.0883 79.3361 53.1587 78.2635 51.3323V51.3323Z" fill="#EBECFF"/>
<path d="M50.002 56.6092V61.967C49.997 61.876 49.9919 61.7798 49.9869 61.6837C49.9969 62.4352 49.8858 63.1835 49.658 63.8997C49.4 64.4663 48.5095 64.6839 47.9682 64.7294C45.5126 64.9212 43.0427 64.8022 40.6169 64.3753C40.1981 64.3059 39.8095 64.1134 39.5005 63.8224C39.1914 63.5314 38.976 63.155 38.8816 62.7411V62.7664C38.4515 64.4309 30.1441 63.5557 29.3346 61.6888C29.2931 61.5829 29.2577 61.4748 29.2283 61.365C28.8893 62.7765 22.2211 61.8355 21.5583 60.2468C21.0777 59.0883 20.6375 53.1587 21.7101 51.3323C23.1571 48.8582 27.579 50.2243 28.859 53.7051C28.8749 53.7535 28.9066 53.7952 28.9491 53.8233C28.9915 53.8515 29.0422 53.8647 29.093 53.8606C29.1438 53.8565 29.1917 53.8354 29.2291 53.8008C29.2665 53.7662 29.2912 53.72 29.2991 53.6697C29.41 52.8807 29.635 52.1121 29.967 51.3879C30.8422 49.7234 34.1966 49.7082 36.4581 51.3879C37.5054 52.1671 38.0367 53.5483 38.4869 54.8687C38.5016 54.9149 38.532 54.9545 38.5728 54.9806C38.6136 55.0067 38.6623 55.0177 38.7103 55.0117C38.7584 55.0057 38.8029 54.9831 38.836 54.9477C38.8691 54.9123 38.8888 54.8665 38.8917 54.8182C38.9271 54.3223 38.9726 53.8417 39.0232 53.5432C39.9643 48.1044 48.0795 49.5362 49.3342 54.9244C49.4404 55.3696 49.5315 55.83 49.6125 56.2904C49.6246 56.3803 49.6696 56.4626 49.7387 56.5214C49.8078 56.5802 49.8961 56.6115 49.9869 56.6092H50.002Z" fill="#FFDBBD"/>
<path d="M49.9864 76.9564C49.7852 76.9564 49.5921 76.8765 49.4498 76.7341C49.3075 76.5918 49.2275 76.3988 49.2275 76.1975V74.1738C49.2275 73.9725 49.3075 73.7795 49.4498 73.6371C49.5921 73.4948 49.7852 73.4149 49.9864 73.4149C50.1877 73.4149 50.3807 73.4948 50.5231 73.6371C50.6654 73.7795 50.7453 73.9725 50.7453 74.1738V76.1975C50.7453 76.3988 50.6654 76.5918 50.5231 76.7341C50.3807 76.8765 50.1877 76.9564 49.9864 76.9564ZM49.9864 72.9089C49.7852 72.9089 49.5921 72.829 49.4498 72.6866C49.3075 72.5443 49.2275 72.3513 49.2275 72.15V70.1263C49.2275 69.925 49.3075 69.732 49.4498 69.5897C49.5921 69.4473 49.7852 69.3674 49.9864 69.3674C50.1877 69.3674 50.3807 69.4473 50.5231 69.5897C50.6654 69.732 50.7453 69.925 50.7453 70.1263V72.15C50.7453 72.3513 50.6654 72.5443 50.5231 72.6866C50.3807 72.829 50.1877 72.9089 49.9864 72.9089V72.9089ZM49.9864 68.8614C49.7852 68.8614 49.5921 68.7815 49.4498 68.6392C49.3075 68.4968 49.2275 68.3038 49.2275 68.1025V66.0788C49.2275 65.8775 49.3075 65.6845 49.4498 65.5422C49.5921 65.3998 49.7852 65.3199 49.9864 65.3199C50.1877 65.3199 50.3807 65.3998 50.5231 65.5422C50.6654 65.6845 50.7453 65.8775 50.7453 66.0788V68.1025C50.7453 68.3038 50.6654 68.4968 50.5231 68.6392C50.3807 68.7815 50.1877 68.8614 49.9864 68.8614ZM49.9864 64.814C49.7852 64.814 49.5921 64.734 49.4498 64.5917C49.3075 64.4494 49.2275 64.2563 49.2275 64.0551V62.0313C49.2275 61.83 49.3075 61.637 49.4498 61.4947C49.5921 61.3524 49.7852 61.2724 49.9864 61.2724C50.1877 61.2724 50.3807 61.3524 50.5231 61.4947C50.6654 61.637 50.7453 61.83 50.7453 62.0313V64.0551C50.7453 64.2563 50.6654 64.4494 50.5231 64.5917C50.3807 64.734 50.1877 64.814 49.9864 64.814ZM49.9864 60.7665C49.7852 60.7665 49.5921 60.6865 49.4498 60.5442C49.3075 60.4019 49.2275 60.2088 49.2275 60.0076V57.9838C49.2275 57.7825 49.3075 57.5895 49.4498 57.4472C49.5921 57.3049 49.7852 57.2249 49.9864 57.2249C50.1877 57.2249 50.3807 57.3049 50.5231 57.4472C50.6654 57.5895 50.7453 57.7825 50.7453 57.9838V60.0076C50.7453 60.2088 50.6654 60.4019 50.5231 60.5442C50.3807 60.6865 50.1877 60.7665 49.9864 60.7665ZM49.9864 56.719C49.7852 56.719 49.5921 56.639 49.4498 56.4967C49.3075 56.3544 49.2275 56.1614 49.2275 55.9601V53.9363C49.2275 53.7351 49.3075 53.542 49.4498 53.3997C49.5921 53.2574 49.7852 53.1774 49.9864 53.1774C50.1877 53.1774 50.3807 53.2574 50.5231 53.3997C50.6654 53.542 50.7453 53.7351 50.7453 53.9363V55.9601C50.7453 56.1614 50.6654 56.3544 50.5231 56.4967C50.3807 56.639 50.1877 56.719 49.9864 56.719ZM49.9864 52.6715C49.7852 52.6715 49.5921 52.5915 49.4498 52.4492C49.3075 52.3069 49.2275 52.1139 49.2275 51.9126V49.8888C49.2275 49.6876 49.3075 49.4945 49.4498 49.3522C49.5921 49.2099 49.7852 49.1299 49.9864 49.1299C50.1877 49.1299 50.3807 49.2099 50.5231 49.3522C50.6654 49.4945 50.7453 49.6876 50.7453 49.8888V51.9126C50.7453 52.1139 50.6654 52.3069 50.5231 52.4492C50.3807 52.5915 50.1877 52.6715 49.9864 52.6715ZM49.9864 48.624C49.7852 48.624 49.5921 48.5441 49.4498 48.4017C49.3075 48.2594 49.2275 48.0664 49.2275 47.8651V45.8414C49.2275 45.6401 49.3075 45.4471 49.4498 45.3047C49.5921 45.1624 49.7852 45.0825 49.9864 45.0825C50.1877 45.0825 50.3807 45.1624 50.5231 45.3047C50.6654 45.4471 50.7453 45.6401 50.7453 45.8414V47.8651C50.7453 48.0664 50.6654 48.2594 50.5231 48.4017C50.3807 48.5441 50.1877 48.624 49.9864 48.624ZM49.9864 44.5765C49.7852 44.5765 49.5921 44.4966 49.4498 44.3542C49.3075 44.2119 49.2275 44.0189 49.2275 43.8176V41.7939C49.2275 41.5926 49.3075 41.3996 49.4498 41.2573C49.5921 41.1149 49.7852 41.035 49.9864 41.035C50.1877 41.035 50.3807 41.1149 50.5231 41.2573C50.6654 41.3996 50.7453 41.5926 50.7453 41.7939V43.8176C50.7453 44.0189 50.6654 44.2119 50.5231 44.3542C50.3807 44.4966 50.1877 44.5765 49.9864 44.5765V44.5765ZM49.9864 40.529C49.7852 40.529 49.5921 40.4491 49.4498 40.3068C49.3075 40.1644 49.2275 39.9714 49.2275 39.7701V37.7464C49.2275 37.5451 49.3075 37.3521 49.4498 37.2098C49.5921 37.0674 49.7852 36.9875 49.9864 36.9875C50.1877 36.9875 50.3807 37.0674 50.5231 37.2098C50.6654 37.3521 50.7453 37.5451 50.7453 37.7464V39.7701C50.7453 39.9714 50.6654 40.1644 50.5231 40.3068C50.3807 40.4491 50.1877 40.529 49.9864 40.529ZM49.9864 36.4816C49.7852 36.4816 49.5921 36.4016 49.4498 36.2593C49.3075 36.117 49.2275 35.9239 49.2275 35.7226V33.6989C49.2275 33.4976 49.3075 33.3046 49.4498 33.1623C49.5921 33.02 49.7852 32.94 49.9864 32.94C50.1877 32.94 50.3807 33.02 50.5231 33.1623C50.6654 33.3046 50.7453 33.4976 50.7453 33.6989V35.7226C50.7453 35.9239 50.6654 36.117 50.5231 36.2593C50.3807 36.4016 50.1877 36.4816 49.9864 36.4816ZM49.9864 32.4341C49.7852 32.4341 49.5921 32.3541 49.4498 32.2118C49.3075 32.0695 49.2275 31.8764 49.2275 31.6752V29.6514C49.2275 29.4501 49.3075 29.2571 49.4498 29.1148C49.5921 28.9725 49.7852 28.8925 49.9864 28.8925C50.1877 28.8925 50.3807 28.9725 50.5231 29.1148C50.6654 29.2571 50.7453 29.4501 50.7453 29.6514V31.6752C50.7453 31.8764 50.6654 32.0695 50.5231 32.2118C50.3807 32.3541 50.1877 32.4341 49.9864 32.4341Z" fill="#2AB7C6"/>
<path d="M64.4351 23.1956L63.7303 24.4838C63.4633 24.9723 63.0617 25.3741 62.5732 25.6413L61.2846 26.3456C61.2259 26.3781 61.177 26.4258 61.1429 26.4836C61.1088 26.5414 61.0908 26.6073 61.0908 26.6745C61.0908 26.7416 61.1088 26.8075 61.1429 26.8653C61.177 26.9232 61.2259 26.9708 61.2846 27.0033L62.5732 27.7081C63.0617 27.9754 63.4633 28.3771 63.7303 28.8657L64.4351 30.1538C64.4676 30.2125 64.5153 30.2615 64.5731 30.2955C64.6309 30.3296 64.6968 30.3476 64.7639 30.3476C64.8311 30.3476 64.897 30.3296 64.9548 30.2955C65.0126 30.2615 65.0603 30.2125 65.0928 30.1538L65.7971 28.8657C66.0642 28.377 66.4659 27.9752 66.9547 27.7081L68.2428 27.0033C68.3015 26.9708 68.3504 26.9232 68.3845 26.8653C68.4186 26.8075 68.4366 26.7416 68.4366 26.6745C68.4366 26.6073 68.4186 26.5414 68.3845 26.4836C68.3504 26.4258 68.3015 26.3781 68.2428 26.3456L66.9547 25.6413C66.4659 25.3742 66.0642 24.9725 65.7971 24.4838L65.0948 23.1956C65.0625 23.1364 65.0148 23.087 64.9567 23.0526C64.8987 23.0182 64.8324 23 64.765 23C64.6975 23 64.6312 23.0182 64.5732 23.0526C64.5152 23.087 64.4675 23.1364 64.4351 23.1956V23.1956Z" fill="#FFB45A"/>
<path d="M73.0686 29.5406L72.5045 30.5727C72.2902 30.9641 71.9684 31.2859 71.5771 31.5001L70.545 32.0642C70.4981 32.0907 70.4591 32.1291 70.432 32.1755C70.4049 32.222 70.3906 32.2748 70.3906 32.3286C70.3906 32.3824 70.4049 32.4352 70.432 32.4816C70.4591 32.5281 70.4981 32.5665 70.545 32.5929L71.5771 33.1576C71.9683 33.3718 72.29 33.6934 72.5045 34.0844L73.0686 35.1165C73.095 35.1634 73.1334 35.2024 73.1799 35.2295C73.2263 35.2566 73.2791 35.2709 73.3329 35.2709C73.3867 35.2709 73.4395 35.2566 73.486 35.2295C73.5324 35.2024 73.5708 35.1634 73.5973 35.1165L74.1614 34.0844C74.3758 33.6934 74.6976 33.3718 75.0888 33.1576L76.1209 32.5929C76.1677 32.5665 76.2067 32.5281 76.2338 32.4816C76.2609 32.4352 76.2752 32.3824 76.2752 32.3286C76.2752 32.2748 76.2609 32.222 76.2338 32.1755C76.2067 32.1291 76.1677 32.0907 76.1209 32.0642L75.0888 31.5001C74.6974 31.2859 74.3756 30.9641 74.1614 30.5727L73.5973 29.5406C73.5708 29.4938 73.5324 29.4548 73.486 29.4277C73.4395 29.4006 73.3867 29.3863 73.3329 29.3863C73.2791 29.3863 73.2263 29.4006 73.1799 29.4277C73.1334 29.4548 73.095 29.4938 73.0686 29.5406V29.5406Z" fill="#FFB45A"/>
</svg>
