<svg width="100" height="100" viewBox="0 0 100 100" fill="none" xmlns="http://www.w3.org/2000/svg">
<rect width="100" height="100" rx="10" fill="#FFC107" fill-opacity="0.1"/>
<path d="M49.4551 34.1436C36.1461 18.7681 18.4478 33.0147 23.9578 47.5935C25.7985 52.4997 29.9143 56.1591 31.0734 61.3324C31.6534 63.9187 31.2179 66.5579 31.8885 69.1259C32.7448 72.4019 34.7245 75.7538 38.5722 75.6624C47.2366 75.4565 44.741 60.628 49.4587 60.0791C54.172 60.628 51.6772 75.4565 60.3452 75.6624C64.1948 75.7538 66.1727 72.4019 67.029 69.1259C67.6996 66.5579 67.2641 63.9187 67.8441 61.3324C69.0032 56.1591 73.119 52.4997 74.9597 47.5935C80.4624 33.0147 62.764 18.7681 49.4551 34.1436V34.1436Z" fill="#E4F4FD"/>
<path d="M67.5973 26.9265L68.2093 25.8123C68.3443 25.5663 68.5429 25.3612 68.7843 25.2183C69.0257 25.0754 69.301 25 69.5816 25C69.8621 25 70.1375 25.0754 70.3789 25.2183C70.6203 25.3612 70.8189 25.5663 70.9538 25.8123L71.5649 26.9293C72.1395 27.9795 73.003 28.8431 74.0533 29.4176L75.1703 30.0287C75.4162 30.1637 75.6214 30.3622 75.7643 30.6037C75.9071 30.8451 75.9825 31.1204 75.9825 31.401C75.9825 31.6815 75.9071 31.9569 75.7643 32.1983C75.6214 32.4397 75.4162 32.6383 75.1703 32.7732L74.0533 33.3843C73.003 33.9589 72.1395 34.8224 71.5649 35.8727L70.9538 36.9888C70.8189 37.2347 70.6203 37.4398 70.3789 37.5827C70.1375 37.7256 69.8621 37.801 69.5816 37.801C69.301 37.801 69.0257 37.7256 68.7843 37.5827C68.5429 37.4398 68.3443 37.2347 68.2093 36.9888L67.5973 35.8754C67.0228 34.8252 66.1592 33.9616 65.109 33.3871L63.992 32.776C63.746 32.641 63.5409 32.4424 63.398 32.201C63.2551 31.9596 63.1797 31.6842 63.1797 31.4037C63.1797 31.1232 63.2551 30.8478 63.398 30.6064C63.5409 30.365 63.746 30.1664 63.992 30.0315L65.109 29.4204C66.16 28.8443 67.0236 27.9788 67.5973 26.9265V26.9265Z" fill="#01CADB"/>
<path d="M61.4465 39.9455L61.7887 39.3198C61.8641 39.1818 61.9753 39.0666 62.1106 38.9864C62.2459 38.9062 62.4003 38.8639 62.5576 38.8639C62.7149 38.8639 62.8692 38.9062 63.0045 38.9864C63.1398 39.0666 63.251 39.1818 63.3265 39.3198L63.6686 39.9455C63.9905 40.5337 64.4744 41.0173 65.0628 41.3388L65.6886 41.6809C65.8266 41.7564 65.9417 41.8676 66.0219 42.0029C66.1021 42.1382 66.1444 42.2926 66.1444 42.4498C66.1444 42.6071 66.1021 42.7615 66.0219 42.8968C65.9417 43.0321 65.8266 43.1433 65.6886 43.2188L65.0628 43.5609C64.4743 43.8827 63.9905 44.3666 63.6686 44.9551L63.3265 45.5809C63.251 45.7188 63.1398 45.834 63.0045 45.9142C62.8692 45.9944 62.7149 46.0367 62.5576 46.0367C62.4003 46.0367 62.2459 45.9944 62.1106 45.9142C61.9753 45.834 61.8641 45.7188 61.7887 45.5809L61.4465 44.9551C61.1245 44.3665 60.6407 43.8824 60.0523 43.56L59.4266 43.2178C59.2886 43.1424 59.1734 43.0312 59.0932 42.8959C59.013 42.7606 58.9707 42.6062 58.9707 42.4489C58.9707 42.2917 59.013 42.1373 59.0932 42.002C59.1734 41.8667 59.2886 41.7555 59.4266 41.68L60.0523 41.3379C60.6404 41.0164 61.1242 40.5332 61.4465 39.9455V39.9455Z" fill="#01CADB"/>
<path d="M29.9969 33.9479C30.0722 34.0415 30.1651 34.1194 30.2705 34.1772C30.3759 34.2349 30.4916 34.2713 30.611 34.2843C30.7305 34.2973 30.8513 34.2866 30.9666 34.2529C31.082 34.2192 31.1895 34.1631 31.2831 34.0878C32.8433 32.8139 34.79 32.1077 36.8042 32.0853C37.0468 32.0853 37.2795 31.9889 37.451 31.8173C37.6226 31.6458 37.719 31.4131 37.719 31.1704C37.719 30.9278 37.6226 30.6951 37.451 30.5236C37.2795 30.352 37.0468 30.2556 36.8042 30.2556C34.3733 30.2784 32.0225 31.1272 30.1378 32.6625C29.9488 32.8144 29.8278 33.035 29.8013 33.2761C29.7749 33.5171 29.8453 33.7587 29.9969 33.9479V33.9479Z" fill="white"/>
<path d="M55.8587 37.6457C51.9084 37.6091 51.268 35.7245 50.2782 33.7347C50.169 33.5176 49.978 33.3527 49.7473 33.2764C49.5165 33.2 49.2649 33.2185 49.0477 33.3276C48.8306 33.4368 48.6657 33.6278 48.5894 33.8586C48.513 34.0893 48.5315 34.3409 48.6406 34.5581L48.8291 34.9405C49.7073 36.7473 51.0348 39.4799 55.8632 39.4799C56.1059 39.4799 56.3386 39.3835 56.5101 39.2119C56.6817 39.0404 56.7781 38.8077 56.7781 38.5651C56.7781 38.3224 56.6817 38.0897 56.5101 37.9182C56.3386 37.7466 56.1059 37.6502 55.8632 37.6502L55.8587 37.6457Z" fill="#C9DFEB"/>
<path d="M28.4129 36.8881C28.9181 36.8881 29.3277 36.4785 29.3277 35.9733C29.3277 35.4681 28.9181 35.0585 28.4129 35.0585C27.9076 35.0585 27.498 35.4681 27.498 35.9733C27.498 36.4785 27.9076 36.8881 28.4129 36.8881Z" fill="white"/>
<path d="M45.0545 54.1995C34.8176 49.7608 26.9226 44.334 23.3556 38.5038C23.3556 38.5148 23.3483 38.5257 23.3456 38.5376C22.6258 41.5488 22.8396 44.7077 23.9585 47.5945C25.7973 52.498 29.9141 56.1573 31.0759 61.3352C31.6522 63.9151 31.2131 66.5589 31.8901 69.1296C32.7409 72.4047 34.7261 75.753 38.5684 75.6615C47.241 75.4602 44.7435 60.6308 49.4549 60.0819C54.1662 60.6308 51.6688 75.4602 60.3414 75.6615C64.1836 75.753 66.1688 72.4047 67.0196 69.1296C67.6966 66.5589 67.2575 63.9151 67.8338 61.3352C67.9981 60.6118 68.2193 59.9024 68.4952 59.2137C61.2608 59.6776 53.7966 57.7482 45.0545 54.1995V54.1995Z" fill="#FFC107"/>
<path d="M76.616 55.1235C75.6445 57.4188 73.0143 58.8661 68.9863 59.1853C61.5981 59.7708 53.9941 57.8287 45.0543 54.1995C34.3599 49.5613 26.2024 43.8445 22.8879 37.7143C22.4171 36.8938 22.1255 35.9828 22.0324 35.0414C21.9394 34.0999 22.047 33.1495 22.3482 32.2527C23.3682 29.5512 28.4602 27.5505 32.0637 28.4104C30.9331 28.8502 29.8656 29.4378 28.8892 30.1577C26.9864 30.4779 24.7917 31.2446 24.0315 32.9571C23.8373 33.6264 23.7833 34.3285 23.8731 35.0196C23.9628 35.7107 24.1943 36.3758 24.5529 36.9732C27.1602 42.0871 35.4669 48.1799 45.7679 52.5162C54.3216 56.1115 62.9292 57.8222 68.8033 57.3648C71.6302 57.1453 74.3097 56.0145 74.9327 54.4099C75.1603 53.6226 75.1874 52.7909 75.0117 51.9905C74.8359 51.19 74.4629 50.4462 73.9264 49.8266C74.2417 49.2459 74.5228 48.6472 74.768 48.0336C76.5904 49.8403 77.6104 52.7742 76.616 55.1235Z" fill="#01CADB"/>
</svg>
