<svg width="138" height="138" viewBox="0 0 138 138" fill="none" xmlns="http://www.w3.org/2000/svg">
<circle cx="69" cy="69" r="69" fill="#FFF5C6" fill-opacity="0.05"/>
<g clip-path="url(#clip0_96_2185)">
<path d="M88.0479 43.4435L91.7331 45.1741L88.0258 53.0685L84.3406 51.3378L88.0479 43.4435Z" fill="#7A8C98"/>
<path d="M81.834 70.8369L80.1062 75.602C79.4014 77.5468 78.9638 79.5775 78.8097 81.6392C78.7724 82.1423 78.7262 82.6956 78.6723 83.2861C78.0908 89.634 76.4978 100.371 72.363 100.785C71.2115 100.901 70.1679 100.331 69.2334 99.3398C66.3156 96.2512 64.4606 89.0627 63.7354 85.7738C63.3182 83.5582 59.9293 83.5582 59.5108 85.7738C58.5532 90.1166 55.6263 101.259 50.8844 100.785C46.3634 100.332 44.8819 87.544 44.4378 81.6392C44.2824 79.5775 43.8448 77.5468 43.14 75.602L41.4134 70.8369C40.9397 69.5314 40.71 68.1784 40.71 66.8369C40.71 63.7997 41.8896 60.8203 44.0963 58.5842C47.1811 55.4584 51.7522 54.3159 55.9447 55.6201L58.6507 56.4622L60.6648 57.0886C60.9767 57.185 61.2989 57.2337 61.6224 57.2337C61.9459 57.2337 62.2694 57.185 62.5826 57.0874L67.3015 55.6201C68.4491 55.2632 69.6249 55.0899 70.7905 55.0899C73.8855 55.0899 76.9099 56.3133 79.1498 58.5841C82.3334 61.8087 83.3771 66.5763 81.834 70.8369Z" fill="#FFF9E2"/>
<path d="M54.1351 85.7736C53.2097 89.0056 51.4631 96.1994 48.6172 99.3137C49.2719 100.163 50.0228 100.698 50.8843 100.784C55.6268 101.259 58.5538 90.1164 59.5113 85.7736C59.7204 84.6656 60.672 84.1117 61.6235 84.1117C61.2052 81.8964 55.5992 80.6614 54.1351 85.7736Z" fill="#FFF5C6"/>
<path d="M81.834 70.837L80.1061 75.602C79.4014 77.5468 78.9637 79.5776 78.8096 81.6392C78.7723 82.1424 78.7261 82.6957 78.6723 83.2862C78.0907 89.6341 76.4977 100.371 72.3629 100.785C71.2114 100.901 70.1678 100.331 69.2333 99.3399C71.4849 96.4503 72.6004 89.8407 73.137 84.8753C73.2166 84.1373 72.7198 83.4582 71.9893 83.317C70.6119 83.0499 69.2448 82.6097 67.9162 81.9858C59.2771 77.9294 56.0011 68.7445 59.9022 60.0335C60.625 58.4199 62.5826 57.0875 62.5826 57.0875L67.3014 55.6202C68.4491 55.2633 69.6249 55.09 70.7905 55.09C73.8854 55.09 76.9098 56.3134 79.1498 58.5841C82.3333 61.8088 83.377 66.5763 81.834 70.837Z" fill="#FFF5C6"/>
<path d="M79.5532 83.6248C89.0976 83.6248 96.8349 75.8875 96.8349 66.3431C96.8349 56.7987 89.0976 49.0614 79.5532 49.0614C70.0088 49.0614 62.2715 56.7987 62.2715 66.3431C62.2715 75.8875 70.0088 83.6248 79.5532 83.6248Z" fill="#9FACBA"/>
<path d="M86.8994 50.7005C83.9344 49.308 80.7745 48.8312 77.7388 49.1546C79.6027 49.3527 81.466 49.8589 83.2581 50.7005C91.8974 54.7576 95.6119 65.05 91.5547 73.6893C88.8901 79.3634 83.5357 82.913 77.7266 83.5318C84.8482 84.2891 91.9805 80.5364 95.196 73.6893C99.2532 65.05 95.5386 54.7576 86.8994 50.7005Z" fill="#8D9CA8"/>
<path d="M91.2022 66.8613C91.2022 52.9823 76.9923 52.783 76.9923 52.783C72.7805 53.5776 69.0136 56.3073 67.0566 60.4747C63.8207 67.3651 66.794 75.6034 73.6844 78.8393C74.7502 79.3397 75.8482 79.6914 76.9549 79.9032C76.9548 79.9033 91.2022 78.5235 91.2022 66.8613Z" fill="#EAF6FF"/>
<path d="M85.4215 53.847C82.6917 52.565 79.7506 52.2584 76.9926 52.783C78.0992 52.995 79.1973 53.3465 80.263 53.847C87.1534 57.0828 90.1267 65.3211 86.8908 72.2116C84.9369 76.3722 81.1589 79.1038 76.9551 79.9033C83.0039 81.0614 89.314 78.0364 92.0493 72.2116C95.2852 65.3211 92.3119 57.0828 85.4215 53.847Z" fill="#C8EFFE"/>
<path d="M97.1127 37C97.7135 37 98.087 37.6527 97.7827 38.1707L93.604 45.2822C93.1663 46.0276 92.2316 46.3173 91.4488 45.9491L91.3921 45.922L87.7061 44.1917L87.6494 44.1647C86.8667 43.7964 86.4921 42.8939 86.7869 42.0803L88.2624 37.9972C88.4787 37.3988 89.0468 37 89.6832 37H97.1127Z" fill="#62DBFB"/>
<path d="M92.9135 37C93.1735 37.2242 93.2365 37.602 93.0635 37.8984L89.7227 43.6217C89.4078 44.1579 88.8357 44.4566 88.248 44.4459L91.3927 45.9222L91.4494 45.9492C92.2322 46.3174 93.1669 46.0277 93.6046 45.2823L97.7833 38.1708C98.0876 37.6527 97.714 37 97.1131 37H92.9135Z" fill="#01D0FB"/>
<path d="M79.5531 61.6974C81.8886 61.6974 83.782 60.3834 83.782 58.7626C83.782 57.1417 81.8886 55.8278 79.5531 55.8278C77.2175 55.8278 75.3242 57.1417 75.3242 58.7626C75.3242 60.3834 77.2175 61.6974 79.5531 61.6974Z" fill="#FD4755"/>
<path d="M79.5531 55.8278C78.8506 55.8278 78.1885 55.9474 77.6055 56.1577C78.9606 56.6467 79.8867 57.6292 79.8867 58.7626C79.8867 59.8958 78.9606 60.8783 77.6055 61.3674C78.1885 61.5779 78.8504 61.6974 79.5531 61.6974C81.8887 61.6974 83.782 60.3835 83.782 58.7626C83.782 57.1418 81.8887 55.8278 79.5531 55.8278Z" fill="#EF3349"/>
<path d="M80.3084 75.4383C79.5315 75.4383 78.962 75.3166 78.9181 75.307C78.3989 75.1927 78.0705 74.6792 78.1848 74.1598C78.2989 73.6416 78.8111 73.3137 79.3291 73.426C79.3568 73.4318 80.7703 73.7211 81.8653 73.2264C82.3497 73.0077 82.9201 73.223 83.1389 73.7076C83.3577 74.1922 83.1423 74.7625 82.6577 74.9812C81.8604 75.3414 81.0017 75.4383 80.3084 75.4383Z" fill="#4F66D0"/>
<path d="M77.9951 75.9053C77.8599 75.9053 77.7229 75.8931 77.5852 75.8676C73.8528 75.1797 71.2374 72.9364 70.2207 69.5514C70.0151 68.8667 69.8943 68.2023 69.8279 67.5967C69.6683 66.1441 70.9535 64.945 72.3964 65.1774L72.4477 65.1856C73.437 65.3449 74.1847 66.1497 74.2986 67.1451C74.5244 69.3857 75.8419 71.0234 78.3487 71.4395C79.5691 71.6719 80.4232 72.8324 80.2036 74.0552C80.0082 75.1432 79.061 75.9053 77.9951 75.9053Z" fill="#6C7FD8"/>
<path d="M78.3483 71.4397C75.8415 71.0236 74.5239 69.3858 74.2982 67.1453C74.1842 66.1498 73.4364 65.3451 72.4473 65.1857L72.396 65.1775C71.4391 65.0235 70.5521 65.4992 70.1094 66.2607C70.2638 66.526 70.3664 66.8256 70.4031 67.1453C70.6289 69.3859 71.9464 71.0236 74.4531 71.4397C75.6736 71.6721 76.5276 72.8326 76.3081 74.0554C76.217 74.5629 75.9608 74.9981 75.6066 75.3194C76.2247 75.5551 76.8853 75.7387 77.5851 75.8677C77.7228 75.8931 77.8597 75.9053 77.9949 75.9053C79.0608 75.9053 80.0081 75.1434 80.2035 74.0554C80.4227 72.8326 79.5686 71.6721 78.3483 71.4397Z" fill="#4F66D0"/>
<path d="M62.5824 57.0874C62.0099 57.3301 57.4117 59.2299 54.3694 59.2299C53.9895 59.2299 53.6351 59.2003 53.3142 59.1349C52.7943 59.0271 52.4593 58.5175 52.567 57.9963C52.6736 57.4765 53.1832 57.1414 53.7044 57.2479C54.8353 57.4816 56.8468 57.022 58.6503 56.4623L60.6644 57.0887C60.9763 57.185 61.2985 57.2337 61.622 57.2337C61.9455 57.2337 62.2691 57.1849 62.5824 57.0874Z" fill="#FFF5C6"/>
<path d="M88.1842 67.0089C88.0994 66.7818 87.9878 66.5789 87.8452 66.4235C87.6476 66.2078 87.4075 66.1129 87.066 66.1129H87.0622C86.0583 66.1141 85.8683 66.4889 85.4704 67.5698C85.1213 68.5146 84.5949 69.942 82.7657 70.2219C82.5756 70.2502 82.3896 70.2655 82.2073 70.2655C81.4601 70.2655 80.7862 70.0229 80.2317 69.5505C78.6579 68.2077 78.5925 65.4632 78.5899 65.1551C78.586 64.6237 79.0135 64.1898 79.5449 64.1859H79.5526C80.0814 64.1859 80.5115 64.6121 80.5153 65.1409C80.5218 65.6954 80.7131 67.4324 81.4833 68.0869C81.6477 68.2256 81.9288 68.4014 82.4743 68.318C83.1239 68.2191 83.3061 67.8712 83.6643 66.9034C84.0622 65.8238 84.6631 64.1923 87.0584 64.1872H87.0662C87.4141 64.1872 87.7439 64.2385 88.0495 64.3387L88.913 65.5118L88.1842 67.0089Z" fill="#B289C9"/>
<path d="M90.3553 69.3105C90.3079 69.8394 89.8379 70.2297 89.3104 70.1834C88.7801 70.1359 88.39 69.6687 88.4362 69.1398C88.4684 68.7611 88.4658 67.7573 88.1846 67.0089C88.227 66.1116 88.1808 65.2169 88.0498 64.3387C88.5158 64.4889 88.9278 64.7547 89.2667 65.1244C90.5619 66.5391 90.3796 69.0307 90.3553 69.3105Z" fill="#A274BF"/>
<path d="M71.9424 61.954C72.4726 61.954 72.9024 61.5242 72.9024 60.994C72.9024 60.4639 72.4726 60.0341 71.9424 60.0341C71.4122 60.0341 70.9824 60.4639 70.9824 60.994C70.9824 61.5242 71.4122 61.954 71.9424 61.954Z" fill="#C8EFFE"/>
</g>
<defs>
<clipPath id="clip0_96_2185">
<rect width="63.8" height="63.8" fill="white" transform="translate(37.4004 37)"/>
</clipPath>
</defs>
</svg>
