<svg width="138" height="138" viewBox="0 0 138 138" fill="none" xmlns="http://www.w3.org/2000/svg">
<circle cx="69" cy="69" r="69" fill="#D70000" fill-opacity="0.05"/>
<g clip-path="url(#clip0_96_2134)">
<path fill-rule="evenodd" clip-rule="evenodd" d="M75.2088 100.763C71.8077 100.763 70.6116 95.4926 70.6116 94.3713V83.1213C70.6116 74.039 61.791 73.7774 61.791 83.1213L61.7536 94.6329C61.3425 97.3987 59.3616 102.743 54.9887 100.09C51.4754 97.9594 47.1024 91.3065 46.2054 84.7658C44.8973 75.4967 47.2146 77.4776 42.3931 68.0216C32.9371 49.3712 46.7661 37.1494 66.2013 46.568C69.453 44.9983 72.6299 43.9891 75.6573 43.5406C76.3675 43.4285 76.6665 44.1386 76.4422 44.6245L91.8409 57.3322C92.2521 56.9958 93.1117 57.22 93.0369 57.9676C92.8127 61.1445 91.8036 64.5083 90.0469 68.0216C85.2255 77.5149 87.5427 75.4593 86.2346 84.7658C85.3002 91.456 79.6939 100.763 75.2088 100.763Z" fill="#E4EDFF"/>
<path fill-rule="evenodd" clip-rule="evenodd" d="M46.9907 60.3222C46.5795 60.3222 46.2432 59.9858 46.2432 59.5747C46.2432 54.4169 50.4292 50.2308 55.587 50.2308C56.5588 50.2308 56.5588 51.7259 55.587 51.7259C51.2515 51.7259 47.7382 55.2392 47.7382 59.5747C47.7382 59.9858 47.4018 60.3222 46.9907 60.3222Z" fill="#CDD5F6"/>
<path fill-rule="evenodd" clip-rule="evenodd" d="M66.1264 60.5091C65.7153 60.5091 65.3789 60.1727 65.3789 59.7616V55.9493C65.3789 54.9775 66.8739 54.9775 66.8739 55.9493V59.7616C66.8739 60.1727 66.5375 60.5091 66.1264 60.5091Z" fill="#CDD5F6"/>
<path fill-rule="evenodd" clip-rule="evenodd" d="M66.1264 70.3763C65.7153 70.3763 65.3789 70.0399 65.3789 69.6287V65.8538C65.3789 64.8821 66.8739 64.8821 66.8739 65.8538V69.6287C66.8739 70.0399 66.5375 70.3763 66.1264 70.3763Z" fill="#CDD5F6"/>
<path fill-rule="evenodd" clip-rule="evenodd" d="M72.9664 63.5365H69.1914C68.1823 63.5365 68.1823 62.0415 69.1914 62.0415H72.9664C73.9381 62.0415 73.9755 63.5365 72.9664 63.5365Z" fill="#CDD5F6"/>
<path fill-rule="evenodd" clip-rule="evenodd" d="M63.0987 63.5365H59.2864C58.3147 63.5365 58.3147 62.0415 59.2864 62.0415H63.0987C64.0705 62.0415 64.0705 63.5365 63.0987 63.5365Z" fill="#CDD5F6"/>
<path fill-rule="evenodd" clip-rule="evenodd" d="M85.8604 60.5839C75.3579 60.5839 70.1253 47.8762 77.5257 40.4759C84.926 33.0381 97.6337 38.3455 97.6337 48.8106C97.6337 55.314 92.3637 60.5839 85.8604 60.5839Z" fill="#FB626B"/>
<path fill-rule="evenodd" clip-rule="evenodd" d="M88.4392 48.2874C87.3927 48.2874 87.3927 49.8571 88.4392 49.8571C89.4483 49.8571 89.4483 48.2874 88.4392 48.2874Z" fill="#D70000"/>
<path fill-rule="evenodd" clip-rule="evenodd" d="M88.4398 51.3522C85.4498 51.3522 85.4498 46.7924 88.4398 46.7924C91.4298 46.7924 91.4298 51.3522 88.4398 51.3522Z" fill="#D70000"/>
<path fill-rule="evenodd" clip-rule="evenodd" d="M88.0656 45.5963C87.4302 45.5963 87.0938 44.8862 87.4676 44.3629C88.2898 43.3164 88.9626 41.9709 89.7848 42.6062C90.5697 43.2416 89.4485 44.2508 88.6262 45.2973C88.5141 45.4842 88.2898 45.5963 88.0656 45.5963Z" fill="#D70000"/>
<path fill-rule="evenodd" clip-rule="evenodd" d="M83.4307 45.8206C80.4033 45.8206 80.4033 41.2607 83.4307 41.2607C86.4208 41.2607 86.4208 45.8206 83.4307 45.8206Z" fill="#D70000"/>
<path fill-rule="evenodd" clip-rule="evenodd" d="M80.7027 51.2026C80.1047 51.2026 79.731 50.4925 80.1047 50.0066C80.927 48.9601 81.5997 47.6145 82.422 48.2499C83.2443 48.8853 82.123 49.8944 81.3007 50.941C81.1512 51.1278 80.927 51.2026 80.7027 51.2026Z" fill="#D70000"/>
<path fill-rule="evenodd" clip-rule="evenodd" d="M83.805 56.3231C80.815 56.3231 80.815 51.7633 83.805 51.7633C86.7951 51.7633 86.7951 56.3231 83.805 56.3231Z" fill="#D70000"/>
<path fill-rule="evenodd" clip-rule="evenodd" d="M89.7477 54.9401C89.1496 54.9401 88.7759 54.23 89.1496 53.7441C89.9719 52.6976 90.6447 51.3521 91.4669 51.9875C92.2892 52.6229 91.1305 53.5946 90.3457 54.6411C90.1962 54.8654 89.9719 54.9401 89.7477 54.9401Z" fill="#D70000"/>
</g>
<defs>
<clipPath id="clip0_96_2134">
<rect width="63.8" height="63.8" fill="white" transform="translate(36.5996 37)"/>
</clipPath>
</defs>
</svg>
