<svg width="100" height="100" viewBox="0 0 100 100" fill="none" xmlns="http://www.w3.org/2000/svg">
<rect width="100" height="100" rx="10" fill="#F58A97" fill-opacity="0.1"/>
<g clip-path="url(#clip0_1_51)">
<path d="M25 44.502C25.8791 45.5583 26.7645 46.6071 27.6521 47.6535C32.1056 52.9047 36.4371 58.0699 42.241 61.201C47.8152 64.2083 53.17 64.216 58.7588 61.201C64.5626 58.0699 68.8941 52.9047 73.3476 47.6536C74.2352 46.6072 75.1206 45.5584 75.9997 44.5021H25V44.502Z" fill="#F58A97"/>
<path d="M75.9997 44.5016C75.1207 45.558 74.2345 46.6073 73.3472 47.6536C68.8937 52.9042 64.562 58.0697 58.7585 61.2011C54.0578 63.7366 49.5241 64.1347 44.8848 62.4083C48.7978 63.3253 52.6648 62.7129 56.6507 60.562C62.4542 57.4316 66.7857 52.2661 71.2394 47.0145C71.9512 46.1754 72.3933 45.3528 72.9288 44.5015H75.9997V44.5016Z" fill="#F07281"/>
<path d="M70.1163 44.9403C67.7556 49.6154 64.0804 52.5311 60.5483 54.3454C54.0717 57.6721 46.9907 57.7051 40.4835 54.4388C36.9346 52.6576 33.2323 49.7762 30.8281 45.1232L70.1163 44.9403Z" fill="#E53950"/>
<path d="M70.1161 44.9407C67.755 49.6159 64.0798 52.5309 60.5473 54.3454C54.2873 57.561 47.4623 57.6995 41.1367 54.7537C46.8684 56.7907 52.9047 56.3722 58.4917 53.5023C61.8037 51.8006 65.2409 49.1317 67.602 44.9519L70.1161 44.9407Z" fill="#CA2E43"/>
<path d="M45.5029 44.7623V49.6836C45.5029 50.2248 45.9415 50.6634 46.4827 50.6634H49.5156C50.0567 50.6634 50.4954 50.2248 50.4954 49.6836V44.7623C50.4954 43.3836 49.3777 42.266 47.9991 42.266C46.6206 42.266 45.5029 43.3835 45.5029 44.7623V44.7623Z" fill="#EEF5F6"/>
<path d="M50.5029 44.7623V49.6836C50.5029 50.2248 50.9415 50.6634 51.4827 50.6634H54.5156C55.0567 50.6634 55.4954 50.2248 55.4954 49.6836V44.7623C55.4954 43.3836 54.3777 42.266 52.9991 42.266C51.6206 42.266 50.5029 43.3835 50.5029 44.7623V44.7623Z" fill="#EEF5F6"/>
<path d="M55.4971 45.5428V49.7849C55.4971 50.2513 55.8752 50.6294 56.3416 50.6294H58.9559C59.4224 50.6294 59.8005 50.2513 59.8005 49.7849V45.5428C59.8005 44.3545 58.8372 43.3911 57.6488 43.3911C56.4604 43.3912 55.4971 44.3545 55.4971 45.5428Z" fill="#EEF5F6"/>
<path d="M59.7998 44.9009V48.382C59.7998 48.8233 60.1575 49.181 60.5988 49.181H63.0724C63.5137 49.181 63.8714 48.8233 63.8714 48.382V44.3684C63.8714 44.336 63.8706 44.3039 63.8691 44.2719C63.8181 43.1782 62.6882 42.4743 61.6613 42.854C60.8581 43.1511 59.9055 43.7447 59.7998 44.9009V44.9009Z" fill="#EEF5F6"/>
<path d="M45.5026 45.5768V49.8188C45.5026 50.2852 45.1245 50.6633 44.6581 50.6633H42.0438C41.5773 50.6633 41.1992 50.2852 41.1992 49.8188V45.5768C41.1992 44.3885 42.1625 43.425 43.3509 43.425C44.5393 43.425 45.5026 44.3884 45.5026 45.5768Z" fill="#EEF5F6"/>
<path d="M41.1995 44.9009V48.382C41.1995 48.8233 40.8418 49.181 40.4005 49.181H37.9269C37.4856 49.181 37.1279 48.8233 37.1279 48.382V44.3684C37.1279 44.336 37.1287 44.3039 37.1302 44.2719C37.1812 43.1782 38.3111 42.4743 39.338 42.854C40.1412 43.1511 41.0937 43.7447 41.1995 44.9009Z" fill="#EEF5F6"/>
<path d="M50.4955 44.7622V49.6836C50.4955 50.2251 50.0575 50.6631 49.516 50.6631H47.4799C48.0215 50.6631 48.4595 50.2251 48.4595 49.6836V44.7622C48.4595 43.7468 47.8533 42.8718 46.9814 42.483C47.2922 42.3425 47.6369 42.2656 48 42.2656C49.3785 42.2656 50.4955 43.3836 50.4955 44.7622V44.7622Z" fill="#DEECF1"/>
<path d="M55.4955 44.7622V49.6836C55.4955 50.2251 55.0575 50.6631 54.516 50.6631H52.4799C53.0215 50.6631 53.4595 50.2251 53.4595 49.6836V44.7622C53.4595 43.7468 52.8533 42.8718 51.9814 42.482C52.2922 42.3425 52.6359 42.2656 52.999 42.2656C54.3785 42.2656 55.4955 43.3836 55.4955 44.7622V44.7622Z" fill="#DEECF1"/>
<path d="M59.8003 45.5427V49.785C59.8003 50.2517 59.4218 50.6291 58.9551 50.6291H56.9201C57.3858 50.6291 57.7643 50.2517 57.7643 49.785V45.5427C57.7643 44.7231 57.3057 44.0102 56.6309 43.6461C56.9335 43.483 57.2801 43.3907 57.6484 43.3907C58.8362 43.3907 59.8003 44.3549 59.8003 45.5427V45.5427Z" fill="#DEECF1"/>
<path d="M63.8712 44.3683V48.3819C63.8712 48.823 63.5132 49.1809 63.0722 49.1809H61.0361C61.4782 49.1809 61.8351 48.8229 61.8351 48.3819V44.3683C61.8351 44.3365 61.8351 44.3037 61.833 44.2719C61.8084 43.7621 61.55 43.3354 61.1766 43.0666C61.3387 42.9825 61.5027 42.9128 61.6618 42.8543C62.6886 42.4738 63.8178 43.1784 63.8691 44.2719C63.8702 44.3037 63.8712 44.3365 63.8712 44.3683V44.3683Z" fill="#DEECF1"/>
<path d="M45.5025 45.5766V49.8189C45.5025 50.2856 45.124 50.6631 44.6573 50.6631H42.6223C43.088 50.6631 43.4664 50.2856 43.4664 49.8189V45.5766C43.4664 44.9827 43.2254 44.4442 42.8366 44.0555C42.6889 43.9078 42.5186 43.7806 42.333 43.6801C42.6356 43.5169 42.9823 43.4247 43.3505 43.4247C43.9454 43.4247 44.4829 43.6657 44.8726 44.0555C45.2615 44.4442 45.5025 44.9826 45.5025 45.5766Z" fill="#DEECF1"/>
<path d="M41.1987 44.9007V48.382C41.1987 48.8231 40.8418 49.181 40.3997 49.181H38.3646C38.8057 49.181 39.1636 48.823 39.1636 48.382V44.9007C39.0775 43.9724 38.4477 43.4073 37.7861 43.0667C38.2128 42.7569 38.7893 42.6513 39.337 42.8544C40.1412 43.1508 41.0931 43.7447 41.1987 44.9007Z" fill="#DEECF1"/>
<path d="M50.5105 46.372C63.8908 46.31 75.989 44.5063 75.989 44.5063C73.4782 43.2587 70.9353 42.0836 68.4355 40.8113C63.2029 38.1481 56.183 32.6336 50.4999 37.5795C44.8167 32.6336 37.7968 38.1481 32.5642 40.8113C30.0644 42.0836 27.5216 43.2588 25.0107 44.5063C25.0107 44.5063 37.1089 46.31 50.4892 46.372V46.3721C50.4928 46.3721 50.4963 46.372 50.4999 46.372C50.5035 46.372 50.507 46.3721 50.5105 46.3721V46.372Z" fill="#F58A97"/>
<path d="M75.9883 44.5067C75.9883 44.5067 74.7369 44.6935 72.5953 44.9477C70.506 43.9292 68.4033 42.9415 66.3303 41.886C61.9258 39.6448 56.2567 35.3841 51.1836 37.0386C56.7389 33.0671 63.411 38.2541 68.4351 40.8111C70.9347 42.084 73.4774 43.2585 75.9883 44.5067V44.5067Z" fill="#F07281"/>
<path d="M67.3052 61.4898C66.9724 62.1954 66.0088 63.9185 64.3106 64.5047C64.179 64.5501 64.179 64.7373 64.3106 64.7827C66.0088 65.3689 66.9724 67.0919 67.3052 67.7976C67.3584 67.9105 67.5191 67.9105 67.5724 67.7976C67.9052 67.092 68.8688 65.3689 70.567 64.7827C70.6986 64.7373 70.6986 64.5501 70.567 64.5047C68.8688 63.9185 67.9052 62.1955 67.5724 61.4898C67.5191 61.3769 67.3584 61.3769 67.3052 61.4898Z" fill="#FEC165"/>
<path d="M70.5671 64.7825C68.8696 65.3691 67.9053 67.0924 67.573 67.798C67.5197 67.9108 67.3586 67.9108 67.3053 67.798C67.1505 67.4677 66.857 66.9159 66.415 66.361C66.773 65.9118 67.2295 65.4605 67.7885 65.125C68.1546 64.9055 68.1546 64.3824 67.7885 64.1619C67.2295 63.8265 66.773 63.3751 66.415 62.9259C66.8571 62.372 67.1505 61.8202 67.3053 61.4899C67.3586 61.3771 67.5197 61.3771 67.573 61.4899C67.9053 62.1955 68.8696 63.9188 70.5671 64.5045C70.6994 64.5506 70.6994 64.7373 70.5671 64.7825V64.7825Z" fill="#FDB441"/>
<path d="M34.5944 26.1763C34.136 27.1481 32.8089 29.5214 30.4699 30.3287C30.2887 30.3913 30.2887 30.6491 30.4699 30.7117C32.8088 31.519 34.136 33.8923 34.5944 34.8641C34.6677 35.0196 34.8891 35.0196 34.9624 34.8641C35.4207 33.8923 36.7479 31.519 39.0868 30.7117C39.2681 30.6491 39.2681 30.3913 39.0868 30.3287C36.7479 29.5215 35.4207 27.1482 34.9624 26.1763C34.889 26.0208 34.6676 26.0208 34.5944 26.1763V26.1763Z" fill="#FEC165"/>
<path d="M39.0869 30.7116C36.7483 31.5189 35.421 33.8923 34.9626 34.8637C34.8897 35.0196 34.6682 35.0196 34.5943 34.8637C34.4281 34.5129 34.1481 33.9775 33.748 33.4C34.2589 32.6318 35.0004 31.7568 35.9912 31.1588C36.4713 30.8686 36.4713 30.1721 35.9912 29.8818C35.0004 29.2838 34.2588 28.409 33.748 27.6406C34.1481 27.0621 34.4281 26.5278 34.5943 26.1759C34.6681 26.0211 34.8897 26.0211 34.9626 26.1759C35.4211 27.1483 36.7483 29.5218 39.0869 30.329C39.2686 30.3916 39.2686 30.6491 39.0869 30.7116V30.7116Z" fill="#FDB441"/>
<path d="M59.735 66.136C59.2767 67.1078 57.9495 69.4811 55.6105 70.2885C55.4293 70.351 55.4293 70.6088 55.6105 70.6714C57.9495 71.4786 59.2767 73.852 59.735 74.8238C59.8083 74.9793 60.0297 74.9793 60.103 74.8238C60.5613 73.8521 61.8885 71.4787 64.2275 70.6714C64.4087 70.6088 64.4087 70.351 64.2275 70.2885C61.8885 69.4812 60.5613 67.1079 60.103 66.136C60.0297 65.9805 59.8083 65.9805 59.735 66.136Z" fill="#FEC165"/>
<path d="M64.2275 70.6712C61.8889 71.4785 60.5616 73.8519 60.1032 74.8233C60.0303 74.9792 59.8088 74.9792 59.7349 74.8233C59.5687 74.4725 59.2887 73.9371 58.8887 73.3596C59.3995 72.5914 60.141 71.7164 61.1319 71.1184C61.6119 70.8282 61.6119 70.1317 61.1319 69.8414C60.141 69.2434 59.3994 68.3685 58.8887 67.6002C59.2887 67.0217 59.5687 66.4874 59.7349 66.1355C59.8087 65.9807 60.0303 65.9807 60.1032 66.1355C60.5617 67.1079 61.8889 69.4814 64.2275 70.2886C64.4092 70.3512 64.4092 70.6086 64.2275 70.6712V70.6712Z" fill="#FDB441"/>
</g>
<defs>
<clipPath id="clip0_1_51">
<rect width="51" height="51" fill="white" transform="translate(25 25)"/>
</clipPath>
</defs>
</svg>
