<svg width="138" height="138" viewBox="0 0 138 138" fill="none" xmlns="http://www.w3.org/2000/svg">
<circle cx="69" cy="69" r="69" fill="#FD4755" fill-opacity="0.05"/>
<g clip-path="url(#clip0_96_2081)">
<path d="M95.8475 68.9L83.1571 88.8888H55.12L42.4297 68.9L51.3001 51.2159H85.0941L95.8475 68.9Z" fill="#8795DE"/>
<path d="M85.094 51.2159H78.8236L88.6046 67.3006C89.2001 68.2801 89.1883 69.5126 88.5738 70.4803L76.8867 88.889H83.1571L95.8474 68.9L85.094 51.2159Z" fill="#6C7FD8"/>
<path d="M69.1387 87.2052L54.0342 85.7635L55.2046 81.2821C56.0582 78.01 59.0147 75.7274 62.3967 75.7274H63.4701L69.1387 87.2052Z" fill="#FD4755"/>
<path d="M81.8192 76.3689C81.6407 78.9594 80.403 81.7103 78.1876 83.9257C77.471 84.6422 69.9428 86.6969 69.1383 87.2052L66.2102 86.9257C66.2102 86.9257 64.6919 85.5759 64.5923 85.4764C62.1958 83.0799 61.8867 79.2478 63.4697 75.7274H78.7979C79.8649 75.7274 80.8906 75.9551 81.8192 76.3689Z" fill="#FB2B3A"/>
<path d="M83.9029 60.4475H54.3742C53.0754 60.4475 52.0225 59.3945 52.0225 58.0957V51.9737L69.4529 49.9169L86.2547 51.9737V58.0957C86.2547 59.3947 85.2017 60.4475 83.9029 60.4475Z" fill="#EAF9FA"/>
<path d="M79.9846 51.9738V58.0958C79.9846 59.3946 78.9316 60.4476 77.6328 60.4476H83.9032C85.202 60.4476 86.2549 59.3946 86.2549 58.0958V51.9738L81.3611 51.3746L79.9846 51.9738Z" fill="#D4F2F6"/>
<path d="M61.4143 56.3425C60.8785 56.3425 60.4443 55.9083 60.4443 55.3726V51.9739C60.4443 51.4382 60.8786 51.0039 61.4143 51.0039C61.9501 51.0039 62.3843 51.4382 62.3843 51.9739V55.3726C62.3843 55.9082 61.95 56.3425 61.4143 56.3425Z" fill="#D4F2F6"/>
<path d="M76.8625 56.3425C76.3267 56.3425 75.8926 55.9083 75.8926 55.3726V51.9739C75.8926 51.4382 76.3268 51.0039 76.8625 51.0039C77.3982 51.0039 77.8325 51.4382 77.8325 51.9739V55.3726C77.8326 55.9082 77.3984 56.3425 76.8625 56.3425Z" fill="#D4F2F6"/>
<path d="M69.1389 56.3425C68.6031 56.3425 68.1689 55.9083 68.1689 55.3726V51.9739C68.1689 51.4382 68.6032 51.0039 69.1389 51.0039C69.6747 51.0039 70.1089 51.4382 70.1089 51.9739V55.3726C70.1089 55.9082 69.6746 56.3425 69.1389 56.3425Z" fill="#D4F2F6"/>
<path d="M100.374 67.1037L88.4687 43.4659C86.9595 40.4693 83.8917 38.5798 80.5368 38.5798H75.4296C75.387 38.5798 75.3455 38.5811 75.3029 38.5825H75.2899C74.1466 38.6147 73.0512 39.052 72.1989 39.8188L69.8709 41.9153C69.6588 42.1054 69.3924 42.1985 69.126 42.1959C68.8687 42.1933 68.6112 42.1002 68.4069 41.9153L66.0789 39.8188C65.1917 39.0208 64.0419 38.5798 62.8482 38.5798H57.7409C57.6789 38.5798 57.6181 38.5798 57.5572 38.5825C54.2749 38.6497 51.2911 40.5237 49.809 43.466L37.9044 67.1037C37.3353 68.234 37.3353 69.5661 37.9044 70.6965L48.5767 91.8874C50.8412 96.3841 55.4467 99.2204 60.4816 99.2204H77.7963C82.8311 99.2204 87.4366 96.3841 89.7012 91.8874L100.374 70.6965C100.943 69.5661 100.943 68.234 100.374 67.1037ZM94.8537 70.0174L83.1571 83.1678C81.6543 84.8595 79.4983 85.8269 77.2364 85.8269H61.0416C58.7795 85.8269 56.6237 84.8595 55.1208 83.1678L43.4242 70.0174C42.8577 69.3798 42.8577 68.4202 43.4242 67.7825L55.1208 54.6323C56.6236 52.9406 58.7795 51.9732 61.0416 51.9732H77.2363C79.4983 51.9732 81.6542 52.9406 83.157 54.6323L94.8537 67.7825C95.4202 68.4202 95.4202 69.3799 94.8537 70.0174Z" fill="#FFC4C8"/>
<path d="M61.0409 85.8269H55.6116C53.3483 85.8269 51.1937 84.8595 49.6895 83.1679L37.8482 69.8546C37.3644 69.31 37.3644 68.4901 37.8482 67.9457L49.6897 54.6324C51.1938 52.9407 53.3484 51.9734 55.6117 51.9734H61.0411C58.779 51.9734 56.6232 52.9407 55.1203 54.6324L43.4235 67.7827C42.8571 68.4203 42.8571 69.3799 43.4235 70.0176L55.1201 83.1679C56.623 84.8594 58.7789 85.8269 61.0409 85.8269Z" fill="#FDB4BA"/>
<path d="M69.1382 42.2153H65.2945C64.2741 42.2153 63.2885 41.8376 62.5294 41.1535L60.6489 39.8188C59.7966 39.0519 58.6999 38.6161 57.5566 38.5825C57.6174 38.5798 57.6783 38.5798 57.7403 38.5798H62.8476C64.0413 38.5798 65.1911 39.0208 66.0783 39.8188L68.4063 41.9153C68.6106 42.1002 68.8679 42.1933 69.1254 42.1959L69.1382 42.2153Z" fill="#FDB4BA"/>
<path d="M100.373 70.6964L89.7004 91.8872C87.4358 96.384 82.8303 99.2202 77.7954 99.2202H72.3662C77.4011 99.2202 82.0065 96.384 84.2698 91.8872L95.4931 69.6023C95.7155 69.16 95.7155 68.6401 95.4931 68.1979L83.0385 43.4659C81.559 40.5289 78.5792 38.6549 75.302 38.5823C75.3447 38.5811 75.3861 38.5797 75.4287 38.5797H80.536C83.8908 38.5797 86.9586 40.4693 88.4679 43.4658L100.373 67.1035C100.942 68.234 100.942 69.5661 100.373 70.6964Z" fill="#FDB4BA"/>
<path d="M62.9482 93.7064C62.5102 93.7064 62.0696 93.635 61.6452 93.4879L55.1839 91.2493C54.6778 91.0739 54.4096 90.5214 54.5849 90.0152C54.7603 89.509 55.313 89.241 55.8191 89.4162L62.2804 91.6548C63.0252 91.913 63.8663 91.7199 64.4236 91.1626L70.3819 85.2043C70.761 84.8255 71.3751 84.8255 71.7537 85.2043C72.1326 85.5831 72.1326 86.1973 71.7537 86.576L65.7954 92.5342C65.0339 93.2958 63.9986 93.7064 62.9482 93.7064Z" fill="#D4F2F6"/>
<path d="M55.8718 89.2631L55.1308 91.4023C54.9846 91.824 54.5242 92.0464 54.1026 91.9002L37.6475 86.1638C37.2598 86.0286 37 85.6629 37 85.2523V82.7483C37 82.2982 37.4441 81.9828 37.869 82.131L55.3727 88.235C55.7943 88.3811 56.018 88.8416 55.8718 89.2631Z" fill="#838383"/>
<path d="M84.236 83.9243C88.4181 79.7422 89.1127 73.6564 85.7875 70.3311C82.4622 67.0059 76.3764 67.7005 72.1943 71.8826C68.0123 76.0646 67.3177 82.1505 70.6429 85.4757C73.9681 88.8009 80.054 88.1063 84.236 83.9243Z" fill="#A6E7F0"/>
<path d="M85.7969 70.3299C83.994 68.5271 81.3797 67.9081 78.6973 68.3834C80.1157 68.6587 81.4084 69.3017 82.4368 70.3299C85.7625 73.6556 85.0678 79.7424 80.8852 83.9251C78.9699 85.8403 76.6554 87.0219 74.3896 87.4232C77.5585 88.0383 81.3559 86.8144 84.2454 83.9251C88.428 79.7424 89.1227 73.6556 85.7969 70.3299Z" fill="#6BD9E7"/>
<path d="M76.0377 84.2168C75.1747 84.2168 73.9522 84.0229 73.0285 83.099C71.0532 81.1237 71.7637 77.0756 74.5801 74.2592C76.2516 72.5878 78.4313 71.5898 80.4107 71.5898C81.2736 71.5898 82.4962 71.7837 83.4199 72.7076C85.3951 74.6829 84.6846 78.731 81.8681 81.5474C80.1966 83.2189 78.017 84.2168 76.0377 84.2168Z" fill="#EAF9FA"/>
<path d="M83.4197 72.7076C82.496 71.7837 81.2735 71.5898 80.4105 71.5898C79.2747 71.5898 78.0734 71.9198 76.9396 72.5157C77.0108 72.5763 77.0811 72.6393 77.1495 72.7076C79.1247 74.6829 78.4142 78.731 75.5978 81.5474C74.8854 82.2598 74.0804 82.8483 73.2383 83.2909C74.1314 84.0493 75.2385 84.2168 76.0376 84.2168C78.0171 84.2168 80.1967 83.2188 81.8681 81.5474C84.6844 78.731 85.3949 74.6829 83.4197 72.7076Z" fill="#D4F2F6"/>
</g>
<defs>
<clipPath id="clip0_96_2081">
<rect width="63.8" height="63.8" fill="white" transform="translate(37 37)"/>
</clipPath>
</defs>
</svg>
