<svg width="100" height="100" viewBox="0 0 100 100" fill="none" xmlns="http://www.w3.org/2000/svg">
<rect width="100" height="100" rx="10" fill="#FF4155" fill-opacity="0.1"/>
<g clip-path="url(#clip0_1_53)">
<path d="M72.5607 33.5289H57.5569V23.5846C55.149 22.9294 52.616 22.5776 50.0005 22.5776C49.887 22.5776 49.7739 22.5796 49.6609 22.581C48.6787 23.6333 46.2017 26.5879 44.8137 30.9354C43.7859 34.1551 43.5457 37.4977 44.0997 40.8707C44.7841 45.0359 46.6885 49.2569 49.7608 53.4189C49.4956 53.6572 48.9339 54.2499 48.9446 54.9875C48.9522 55.5154 49.2482 56.0003 49.8247 56.4299V56.6454C50.1099 56.6513 50.3969 56.6553 50.6876 56.6553C71.5139 56.6553 76.962 41.5427 76.9876 41.4715C75.9348 38.5787 74.4316 35.9023 72.5607 33.5289V33.5289Z" fill="#E80054"/>
<path d="M50.0003 53.4472C37.5568 36.7311 47.9659 24.5931 49.9024 22.5786C37.537 22.6199 27.013 30.4776 23.0127 41.4697C23.0127 41.4698 29.6643 56.3179 50.0003 56.6474V56.3402C48.0196 54.9377 50.0003 53.4472 50.0003 53.4472V53.4472Z" fill="#CC0053"/>
<path d="M71.348 29.4675C71.2055 29.182 71.0177 28.9214 70.7921 28.6957C70.2366 28.1401 69.483 27.828 68.6973 27.828H65.2105C65.0871 28.0954 64.8246 28.7855 65.0814 29.3751C65.25 29.7623 65.5993 30.0244 66.1196 30.1542C66.1378 30.1587 66.1428 30.161 66.1515 30.1849C66.1527 30.1882 66.1536 30.1923 66.1547 30.1958L66.8906 29.4673C67.1875 29.1734 67.6707 29.1909 67.9455 29.5055L68.9577 30.6641C69.1233 30.8537 69.3628 30.9624 69.6145 30.9624H71.958V30.6896L71.348 29.4675Z" fill="#D3DCFB"/>
<path d="M64.6218 27.828C63.1458 27.828 62.1872 26.1936 61.6976 25.0517C61.4167 24.3966 60.7778 23.9675 60.0649 23.9675H57.5566C57.557 23.981 57.5588 23.9944 57.5588 24.0078V27.0575C57.5588 27.5385 57.801 27.9869 58.2032 28.2507L60.1037 29.4971C60.3438 29.6546 60.4886 29.9225 60.4886 30.2098V32.6769C60.4886 33.1475 60.8701 33.5291 61.3407 33.5291H62.4376C62.6621 33.5291 62.8777 33.4405 63.0371 33.2825L66.3273 30.0254C66.2912 29.9777 66.2425 29.9434 66.1768 29.927C64.5379 29.5182 65.4721 27.8282 65.4721 27.8282H64.6218V27.828Z" fill="#BEC8F7"/>
<path d="M76.9882 41.4697C73.6271 40.5664 71.1154 40.9019 69.3893 41.5233C65.8395 47.8678 65.5921 50.396 65.1646 54.8165C64.4551 62.1516 63.5752 69.7115 58.7466 75.0845C57.0217 77.0037 53.8243 75.6615 54.0753 73.0636C54.473 68.9465 54.9471 63.3479 54.9471 60.0574C54.9471 56.7387 53.2495 53.1649 50.0005 53.1649C49.8609 53.1649 49.7253 53.1738 49.5915 53.1867C49.6477 53.264 49.7036 53.3415 49.7607 53.4188C49.4955 53.657 48.9338 54.2498 48.9445 54.9874C48.9521 55.5153 49.2481 56.0002 49.8246 56.4298V79.248L56.3762 79.2357L56.8477 79.176C57.8832 78.9227 58.8973 78.6151 59.8852 78.2528L61.485 77.4523L78.7042 50.6967L78.7053 50.6988C78.6399 47.4626 78.0393 44.358 76.9882 41.4697V41.4697Z" fill="#FF4155"/>
<path d="M50.0004 56.3402C48.0198 54.9377 50.0005 53.4472 50.0005 53.4472C49.9321 53.3552 49.8654 53.2637 49.7984 53.1719C46.6813 53.3179 45.0539 56.8177 45.0539 60.0575C45.0539 63.3488 45.528 68.9471 45.9258 73.0638C46.1769 75.6628 42.978 77.0028 41.2543 75.0847C36.4267 69.7126 35.5446 62.1376 34.8364 54.8166C34.4089 50.3961 34.1616 47.8679 30.6118 41.5235C28.8857 40.902 26.3741 40.5665 23.0129 41.4698C21.962 44.3578 21.3613 47.4618 21.2959 50.6974L21.2968 50.6965L36.1724 75.6578L39.1118 77.6989L40.1166 78.2532C41.1022 78.6146 42.114 78.9216 43.147 79.1746L43.6669 79.2596L50.0004 79.2478V56.3402Z" fill="#E80054"/>
<path d="M72.1968 30.7867H69.6151C69.4141 30.7867 69.223 30.6998 69.0908 30.5485L68.0785 29.3899C67.9156 29.2036 67.6804 29.0915 67.4332 29.0826C67.1841 29.0746 66.9431 29.1683 66.7673 29.3424L62.9136 33.1576C62.7862 33.2838 62.6172 33.3533 62.4377 33.3533H61.3409C60.9673 33.3533 60.6645 33.0505 60.6645 32.6769V30.2096C60.6645 29.8619 60.491 29.5407 60.2002 29.3502L58.2998 28.1037C57.9472 27.8724 57.7348 27.479 57.7348 27.0574V24.0077C57.7348 23.5503 57.5389 23.1138 57.1973 22.8102C56.9601 22.5994 56.3642 22.0692 55.7186 21.4945C55.4476 21.2531 55.0619 21.1837 54.7264 21.3223C54.7098 21.3292 54.693 21.3361 54.6764 21.343C53.1623 21.9729 51.5531 22.2889 49.9457 22.2846C49.2881 22.9446 46.3678 26.0681 44.8137 30.9354C43.7859 34.155 43.5457 37.4976 44.0997 40.8707C44.7841 45.0358 46.6885 49.2568 49.7608 53.4189C49.7472 53.431 49.7325 53.4448 49.7173 53.4588C50.8742 53.3733 52.0634 53.8114 52.8874 54.776C53.8419 55.8934 54.6649 57.5763 54.6649 60.0574C54.6649 63.2945 54.2076 68.7586 53.7943 73.0365C53.5185 75.8907 57.04 77.406 58.9567 75.2731C61.0494 72.9445 63.1521 69.3401 64.2021 63.8277C66.7155 50.6317 63.8251 51.0715 71.617 38.2827C72.8511 36.2571 73.4291 34.132 73.4581 32.0762C73.4681 31.3687 72.9045 30.7867 72.1968 30.7867V30.7867Z" fill="#E9EFFF"/>
<path d="M45.3714 21.3624C32.1724 15.832 22.2872 28.276 28.3842 38.2829C36.1761 51.0716 33.2856 50.6319 35.7991 63.8279C36.8545 69.3689 38.9736 72.9821 41.077 75.3095C42.9845 77.42 46.4805 75.8689 46.2069 73.0373C45.7936 68.7593 45.3363 63.2948 45.3363 60.0575C45.3363 57.5764 46.1592 55.8935 47.1138 54.7761C47.8706 53.8902 48.9356 53.4472 50.0006 53.4472C36.3512 35.111 50.199 22.2827 50.199 22.2827L50.1989 22.2823C48.5585 22.3123 46.9148 22.0092 45.3714 21.3624V21.3624Z" fill="#D3DCFB"/>
<path d="M40.1164 78.2532C39.6745 77.9678 39.2623 77.6188 38.8924 77.207C35.9536 73.9367 33.9567 69.6175 32.9568 64.3692C32.6408 62.71 32.4084 61.2675 32.2295 59.9906C31.4397 54.3557 26.5422 50.5815 21.2966 50.6966C21.2926 50.8936 21.2891 51.0908 21.2891 51.2889C21.2892 63.6724 29.1291 74.2247 40.1164 78.2532V78.2532Z" fill="#FF4155"/>
<path d="M78.7037 50.6967C73.4585 50.5816 68.5614 54.3554 67.7711 59.9899C67.592 61.2668 67.3595 62.7095 67.0433 64.3693C66.0436 69.6179 64.0466 73.9372 61.108 77.207C60.7382 77.6185 60.3264 77.9676 59.8848 78.2529C70.8716 74.224 78.7112 63.672 78.7112 51.2888C78.7112 51.0908 78.7077 50.8936 78.7037 50.6967V50.6967Z" fill="#FF7186"/>
<path d="M54.3705 78.6657C52.0238 77.6341 50.667 75.3153 50.914 72.7584C51.4749 66.9542 51.7712 62.5625 51.7712 60.0575C51.7712 58.6421 51.4064 57.4974 50.687 56.6552C50.453 56.3811 50.1561 56.3402 49.9998 56.3402C49.8437 56.3402 49.5469 56.3811 49.3129 56.6551C48.5934 57.4974 48.2287 58.642 48.2287 60.0574C48.2287 62.5618 48.525 66.9538 49.0858 72.7583C49.3328 75.315 47.9761 77.6338 45.6296 78.6656C44.8471 79.0095 44.0335 79.1769 43.2327 79.1769C43.2039 79.1769 43.1753 79.175 43.1465 79.1747C45.3429 79.7127 47.6377 80 50 80C52.36 80 54.6528 79.7131 56.8472 79.1762C56.0206 79.1877 55.1791 79.0211 54.3705 78.6657Z" fill="#FF7186"/>
<path d="M54.4506 38.9143C53.9976 38.9143 53.6303 38.547 53.6303 38.094V37.03C53.6303 36.6405 53.4161 36.2857 53.0711 36.1044C53.0697 36.1037 53.0614 36.0992 53.06 36.0985C52.4205 35.7622 52.0205 35.1001 52.0205 34.3727V32.1586C52.0205 31.4444 52.4097 30.7881 53.0362 30.4455L57.3286 28.0984C57.5893 27.9559 57.751 27.6828 57.751 27.3859V25.5021C57.751 25.049 58.1182 24.6818 58.5713 24.6818C59.0243 24.6818 59.3916 25.049 59.3916 25.5021V27.3859C59.3916 28.2828 58.9027 29.1073 58.1157 29.5378L53.8232 31.8849C53.7231 31.9397 53.661 32.0444 53.661 32.1586V34.3727C53.661 34.4888 53.7249 34.5945 53.8277 34.6486C53.8291 34.6493 53.8374 34.6537 53.8388 34.6544C54.7204 35.118 55.2708 36.0291 55.2708 37.03V38.094C55.2709 38.5472 54.9037 38.9143 54.4506 38.9143V38.9143Z" fill="#BEC8F7"/>
</g>
<defs>
<clipPath id="clip0_1_53">
<rect width="60" height="60" fill="white" transform="translate(20 20)"/>
</clipPath>
</defs>
</svg>
